{"glyphs":{"0":{"ha":972,"x_min":0,"x_max":0,"o":"m 243 69 l 104 69 l 104 764 l 243 764 l 243 903 l 729 903 l 729 764 l 868 764 l 868 69 l 729 69 l 729 -69 l 243 -69 m 660 139 l 660 347 l 521 347 l 521 208 l 313 208 l 313 139 m 451 417 l 451 556 l 660 556 l 660 694 l 313 694 l 313 417 "},"1":{"ha":972,"x_min":0,"x_max":0,"o":"m 868 139 l 868 -69 l 104 -69 l 104 139 l 382 139 l 382 556 l 174 556 l 174 764 l 382 764 l 382 903 l 590 903 l 590 139 "},"2":{"ha":972,"x_min":0,"x_max":0,"o":"m 313 278 l 313 139 l 868 139 l 868 -69 l 104 -69 l 104 347 l 243 347 l 243 486 l 660 486 l 660 694 l 313 694 l 313 556 l 104 556 l 104 764 l 243 764 l 243 903 l 729 903 l 729 764 l 868 764 l 868 417 l 729 417 l 729 278 "},"3":{"ha":972,"x_min":0,"x_max":0,"o":"m 104 139 l 660 139 l 660 278 l 104 278 l 104 486 l 660 486 l 660 694 l 104 694 l 104 903 l 729 903 l 729 764 l 868 764 l 868 417 l 799 417 l 799 347 l 868 347 l 868 69 l 729 69 l 729 -69 l 104 -69 "},"4":{"ha":972,"x_min":0,"x_max":0,"o":"m 799 69 l 799 -69 l 590 -69 l 590 69 l 104 69 l 104 486 l 243 486 l 243 694 l 313 694 l 313 903 l 521 903 l 521 625 l 451 625 l 451 417 l 313 417 l 313 278 l 590 278 l 590 903 l 799 903 l 799 278 l 868 278 l 868 69 "},"5":{"ha":972,"x_min":0,"x_max":0,"o":"m 729 417 l 868 417 l 868 69 l 729 69 l 729 -69 l 243 -69 l 243 69 l 104 69 l 104 278 l 313 278 l 313 139 l 660 139 l 660 347 l 243 347 l 243 486 l 104 486 l 104 903 l 868 903 l 868 694 l 313 694 l 313 556 l 729 556 "},"6":{"ha":972,"x_min":0,"x_max":0,"o":"m 729 417 l 868 417 l 868 69 l 729 69 l 729 -69 l 243 -69 l 243 69 l 104 69 l 104 764 l 243 764 l 243 903 l 729 903 l 729 694 l 313 694 l 313 556 l 729 556 m 660 139 l 660 347 l 313 347 l 313 139 "},"7":{"ha":972,"x_min":0,"x_max":0,"o":"m 868 903 l 868 486 l 729 486 l 729 347 l 590 347 l 590 -69 l 382 -69 l 382 417 l 521 417 l 521 556 l 660 556 l 660 694 l 104 694 l 104 903 "},"8":{"ha":972,"x_min":0,"x_max":0,"o":"m 243 -69 l 243 0 l 104 0 l 104 347 l 243 347 l 243 417 l 104 417 l 104 764 l 243 764 l 243 903 l 729 903 l 729 764 l 868 764 l 868 417 l 729 417 l 729 347 l 868 347 l 868 0 l 729 0 l 729 -69 m 660 139 l 660 278 l 313 278 l 313 139 m 660 486 l 660 694 l 313 694 l 313 486 "},"9":{"ha":972,"x_min":0,"x_max":0,"o":"m 868 69 l 729 69 l 729 -69 l 243 -69 l 243 139 l 660 139 l 660 278 l 243 278 l 243 417 l 104 417 l 104 764 l 243 764 l 243 903 l 729 903 l 729 764 l 868 764 m 660 486 l 660 694 l 313 694 l 313 486 "}," ":{"ha":486,"x_min":0,"x_max":0,"o":""},"A":{"ha":972,"x_min":0,"x_max":0,"o":"m 243 764 l 243 903 l 729 903 l 729 764 l 868 764 l 868 -69 l 660 -69 l 660 208 l 313 208 l 313 -69 l 104 -69 l 104 764 m 660 417 l 660 694 l 313 694 l 313 417 "},"B":{"ha":972,"x_min":0,"x_max":0,"o":"m 104 903 l 729 903 l 729 764 l 868 764 l 868 486 l 799 486 l 799 417 l 868 417 l 868 69 l 729 69 l 729 -69 l 104 -69 m 660 139 l 660 347 l 313 347 l 313 139 m 660 556 l 660 694 l 313 694 l 313 556 "},"C":{"ha":972,"x_min":0,"x_max":0,"o":"m 243 69 l 104 69 l 104 764 l 243 764 l 243 903 l 868 903 l 868 694 l 313 694 l 313 139 l 868 139 l 868 -69 l 243 -69 "},"D":{"ha":972,"x_min":0,"x_max":0,"o":"m 104 903 l 729 903 l 729 764 l 868 764 l 868 69 l 729 69 l 729 -69 l 104 -69 m 660 139 l 660 694 l 313 694 l 313 139 "},"E":{"ha":972,"x_min":0,"x_max":0,"o":"m 104 903 l 868 903 l 868 694 l 313 694 l 313 556 l 868 556 l 868 347 l 313 347 l 313 139 l 868 139 l 868 -69 l 104 -69 "},"F":{"ha":972,"x_min":0,"x_max":0,"o":"m 868 903 l 868 694 l 313 694 l 313 556 l 868 556 l 868 347 l 313 347 l 313 -69 l 104 -69 l 104 903 "},"G":{"ha":972,"x_min":0,"x_max":0,"o":"m 243 69 l 104 69 l 104 764 l 243 764 l 243 903 l 799 903 l 799 694 l 313 694 l 313 139 l 660 139 l 660 347 l 507 347 l 507 556 l 799 556 l 799 417 l 868 417 l 868 69 l 729 69 l 729 -69 l 243 -69 "},"H":{"ha":972,"x_min":0,"x_max":0,"o":"m 313 903 l 313 542 l 660 542 l 660 903 l 868 903 l 868 -69 l 660 -69 l 660 333 l 313 333 l 313 -69 l 104 -69 l 104 903 "},"I":{"ha":972,"x_min":0,"x_max":0,"o":"m 868 694 l 590 694 l 590 139 l 868 139 l 868 -69 l 104 -69 l 104 139 l 382 139 l 382 694 l 104 694 l 104 903 l 868 903 "},"J":{"ha":972,"x_min":0,"x_max":0,"o":"m 104 139 l 382 139 l 382 694 l 104 694 l 104 903 l 868 903 l 868 694 l 590 694 l 590 69 l 451 69 l 451 -69 l 104 -69 "},"K":{"ha":972,"x_min":0,"x_max":0,"o":"m 382 278 l 313 278 l 313 -69 l 104 -69 l 104 903 l 313 903 l 313 486 l 382 486 l 382 625 l 521 625 l 521 764 l 660 764 l 660 903 l 868 903 l 868 694 l 729 694 l 729 556 l 590 556 l 590 417 l 451 417 l 451 347 l 590 347 l 590 208 l 729 208 l 729 139 l 868 139 l 868 -69 l 660 -69 l 660 0 l 521 0 l 521 139 l 382 139 "},"L":{"ha":972,"x_min":0,"x_max":0,"o":"m 104 903 l 313 903 l 313 139 l 868 139 l 868 -69 l 104 -69 "},"M":{"ha":972,"x_min":0,"x_max":0,"o":"m 104 903 l 313 903 l 313 764 l 451 764 l 451 625 l 521 625 l 521 764 l 660 764 l 660 903 l 868 903 l 868 -69 l 660 -69 l 660 486 l 590 486 l 590 139 l 382 139 l 382 486 l 313 486 l 313 -69 l 104 -69 "},"N":{"ha":972,"x_min":0,"x_max":0,"o":"m 313 903 l 313 764 l 451 764 l 451 556 l 590 556 l 590 347 l 660 347 l 660 903 l 868 903 l 868 -69 l 660 -69 l 660 69 l 521 69 l 521 278 l 382 278 l 382 486 l 313 486 l 313 -69 l 104 -69 l 104 903 "},"O":{"ha":972,"x_min":0,"x_max":0,"o":"m 243 69 l 104 69 l 104 764 l 243 764 l 243 903 l 729 903 l 729 764 l 868 764 l 868 69 l 729 69 l 729 -69 l 243 -69 m 660 139 l 660 694 l 313 694 l 313 139 "},"P":{"ha":972,"x_min":0,"x_max":0,"o":"m 729 903 l 729 764 l 868 764 l 868 417 l 729 417 l 729 278 l 313 278 l 313 -69 l 104 -69 l 104 903 m 660 486 l 660 694 l 313 694 l 313 486 "},"Q":{"ha":972,"x_min":0,"x_max":0,"o":"m 243 69 l 104 69 l 104 764 l 243 764 l 243 903 l 660 903 l 660 764 l 799 764 l 799 417 l 868 417 l 868 208 l 799 208 l 799 69 l 660 69 l 660 -69 l 243 -69 m 590 139 l 590 208 l 521 208 l 521 417 l 590 417 l 590 694 l 313 694 l 313 139 "},"R":{"ha":972,"x_min":0,"x_max":0,"o":"m 729 903 l 729 764 l 868 764 l 868 486 l 729 486 l 729 347 l 660 347 l 660 139 l 868 139 l 868 -69 l 590 -69 l 590 69 l 451 69 l 451 347 l 313 347 l 313 -69 l 104 -69 l 104 903 m 660 556 l 660 694 l 313 694 l 313 556 "},"S":{"ha":972,"x_min":0,"x_max":0,"o":"m 104 139 l 660 139 l 660 347 l 243 347 l 243 486 l 104 486 l 104 764 l 243 764 l 243 903 l 868 903 l 868 694 l 313 694 l 313 556 l 799 556 l 799 417 l 868 417 l 868 69 l 799 69 l 799 -69 l 104 -69 "},"T":{"ha":972,"x_min":0,"x_max":0,"o":"m 104 903 l 868 903 l 868 694 l 590 694 l 590 -69 l 382 -69 l 382 694 l 104 694 "},"U":{"ha":972,"x_min":0,"x_max":0,"o":"m 313 903 l 313 139 l 660 139 l 660 903 l 868 903 l 868 69 l 729 69 l 729 -69 l 243 -69 l 243 69 l 104 69 l 104 903 "},"V":{"ha":972,"x_min":0,"x_max":0,"o":"m 313 903 l 313 486 l 382 486 l 382 208 l 590 208 l 590 486 l 660 486 l 660 903 l 868 903 l 868 486 l 799 486 l 799 139 l 590 139 l 590 -69 l 382 -69 l 382 139 l 174 139 l 174 486 l 104 486 l 104 903 "},"W":{"ha":972,"x_min":0,"x_max":0,"o":"m 313 903 l 313 278 l 382 278 l 382 903 l 590 903 l 590 278 l 660 278 l 660 903 l 868 903 l 868 69 l 729 69 l 729 -69 l 521 -69 l 521 69 l 451 69 l 451 -69 l 243 -69 l 243 69 l 104 69 l 104 903 "},"X":{"ha":972,"x_min":0,"x_max":0,"o":"m 313 694 l 451 694 l 451 486 l 521 486 l 521 694 l 660 694 l 660 903 l 868 903 l 868 625 l 729 625 l 729 417 l 590 417 l 590 347 l 729 347 l 729 208 l 868 208 l 868 -69 l 660 -69 l 660 69 l 521 69 l 521 278 l 451 278 l 451 69 l 313 69 l 313 -69 l 104 -69 l 104 208 l 243 208 l 243 347 l 382 347 l 382 417 l 243 417 l 243 625 l 104 625 l 104 903 l 313 903 "},"Y":{"ha":972,"x_min":0,"x_max":0,"o":"m 313 556 l 465 556 l 465 486 l 535 486 l 535 556 l 660 556 l 660 903 l 868 903 l 868 417 l 743 417 l 743 278 l 604 278 l 604 -69 l 396 -69 l 396 278 l 257 278 l 257 417 l 104 417 l 104 903 l 313 903 "},"Z":{"ha":972,"x_min":0,"x_max":0,"o":"m 104 903 l 868 903 l 868 694 l 729 694 l 729 417 l 590 417 l 590 278 l 451 278 l 451 139 l 868 139 l 868 -69 l 104 -69 l 104 139 l 243 139 l 243 347 l 382 347 l 382 556 l 521 556 l 521 694 l 104 694 "},"a":{"ha":972,"x_min":0,"x_max":0,"o":"m 729 556 l 868 556 l 868 -69 l 243 -69 l 243 69 l 104 69 l 104 278 l 243 278 l 243 417 l 660 417 l 660 486 l 243 486 l 243 694 l 729 694 m 660 139 l 660 208 l 313 208 l 313 139 "},"b":{"ha":972,"x_min":0,"x_max":0,"o":"m 104 972 l 313 972 l 313 694 l 729 694 l 729 556 l 868 556 l 868 69 l 729 69 l 729 -69 l 104 -69 m 660 139 l 660 486 l 313 486 l 313 139 "},"c":{"ha":972,"x_min":0,"x_max":0,"o":"m 868 486 l 313 486 l 313 139 l 868 139 l 868 -69 l 243 -69 l 243 69 l 104 69 l 104 556 l 243 556 l 243 694 l 868 694 "},"d":{"ha":972,"x_min":0,"x_max":0,"o":"m 243 -69 l 243 69 l 104 69 l 104 556 l 243 556 l 243 694 l 660 694 l 660 972 l 868 972 l 868 -69 m 660 139 l 660 486 l 313 486 l 313 139 "},"e":{"ha":972,"x_min":0,"x_max":0,"o":"m 243 69 l 104 69 l 104 556 l 243 556 l 243 694 l 729 694 l 729 556 l 868 556 l 868 347 l 729 347 l 729 208 l 313 208 l 313 139 l 729 139 l 729 -69 l 243 -69 m 660 417 l 660 486 l 313 486 l 313 417 "},"f":{"ha":972,"x_min":0,"x_max":0,"o":"m 104 556 l 313 556 l 313 764 l 451 764 l 451 903 l 868 903 l 868 694 l 521 694 l 521 556 l 868 556 l 868 347 l 521 347 l 521 139 l 590 139 l 590 -69 l 243 -69 l 243 139 l 313 139 l 313 347 l 104 347 "},"g":{"ha":972,"x_min":0,"x_max":0,"o":"m 868 -139 l 729 -139 l 729 -278 l 243 -278 l 243 -69 l 660 -69 l 660 69 l 243 69 l 243 208 l 104 208 l 104 556 l 243 556 l 243 694 l 868 694 m 660 278 l 660 486 l 313 486 l 313 278 "},"h":{"ha":972,"x_min":0,"x_max":0,"o":"m 313 972 l 313 694 l 729 694 l 729 556 l 868 556 l 868 -69 l 660 -69 l 660 486 l 313 486 l 313 -69 l 104 -69 l 104 972 "},"i":{"ha":972,"x_min":0,"x_max":0,"o":"m 590 139 l 868 139 l 868 -69 l 521 -69 l 521 69 l 382 69 l 382 486 l 104 486 l 104 694 l 590 694 m 382 972 l 590 972 l 590 764 l 382 764 "},"j":{"ha":972,"x_min":0,"x_max":0,"o":"m 868 -139 l 729 -139 l 729 -278 l 104 -278 l 104 -69 l 660 -69 l 660 486 l 382 486 l 382 694 l 868 694 m 660 972 l 868 972 l 868 764 l 660 764 "},"k":{"ha":972,"x_min":0,"x_max":0,"o":"m 451 208 l 313 208 l 313 -69 l 104 -69 l 104 972 l 313 972 l 313 417 l 451 417 l 451 556 l 660 556 l 660 694 l 868 694 l 868 486 l 660 486 l 660 347 l 451 347 l 451 278 l 660 278 l 660 139 l 868 139 l 868 -69 l 660 -69 l 660 69 l 451 69 "},"l":{"ha":972,"x_min":0,"x_max":0,"o":"m 521 139 l 868 139 l 868 -69 l 451 -69 l 451 69 l 313 69 l 313 764 l 104 764 l 104 972 l 521 972 "},"m":{"ha":972,"x_min":0,"x_max":0,"o":"m 104 556 l 243 556 l 243 694 l 451 694 l 451 556 l 521 556 l 521 694 l 729 694 l 729 556 l 868 556 l 868 -69 l 660 -69 l 660 347 l 590 347 l 590 -69 l 382 -69 l 382 347 l 313 347 l 313 -69 l 104 -69 "},"n":{"ha":972,"x_min":0,"x_max":0,"o":"m 243 556 l 243 694 l 729 694 l 729 556 l 868 556 l 868 -69 l 660 -69 l 660 486 l 313 486 l 313 -69 l 104 -69 l 104 556 "},"o":{"ha":972,"x_min":0,"x_max":0,"o":"m 243 69 l 104 69 l 104 556 l 243 556 l 243 694 l 729 694 l 729 556 l 868 556 l 868 69 l 729 69 l 729 -69 l 243 -69 m 660 139 l 660 486 l 313 486 l 313 139 "},"p":{"ha":972,"x_min":0,"x_max":0,"o":"m 729 694 l 729 556 l 868 556 l 868 69 l 729 69 l 729 -69 l 313 -69 l 313 -278 l 104 -278 l 104 694 m 660 139 l 660 486 l 313 486 l 313 139 "},"q":{"ha":972,"x_min":0,"x_max":0,"o":"m 868 -278 l 660 -278 l 660 -69 l 243 -69 l 243 69 l 104 69 l 104 556 l 243 556 l 243 694 l 868 694 m 660 139 l 660 486 l 313 486 l 313 139 "},"r":{"ha":972,"x_min":0,"x_max":0,"o":"m 104 694 l 313 694 l 313 556 l 382 556 l 382 694 l 868 694 l 868 486 l 451 486 l 451 139 l 729 139 l 729 -69 l 104 -69 l 104 139 l 243 139 l 243 486 l 104 486 "},"s":{"ha":972,"x_min":0,"x_max":0,"o":"m 313 486 l 313 417 l 729 417 l 729 278 l 868 278 l 868 69 l 729 69 l 729 -69 l 104 -69 l 104 139 l 660 139 l 660 208 l 243 208 l 243 347 l 104 347 l 104 556 l 243 556 l 243 694 l 868 694 l 868 486 "},"t":{"ha":972,"x_min":0,"x_max":0,"o":"m 313 694 l 313 833 l 521 833 l 521 694 l 868 694 l 868 486 l 521 486 l 521 139 l 868 139 l 868 -69 l 451 -69 l 451 69 l 313 69 l 313 486 l 104 486 l 104 694 "},"u":{"ha":972,"x_min":0,"x_max":0,"o":"m 243 69 l 104 69 l 104 694 l 313 694 l 313 139 l 660 139 l 660 694 l 868 694 l 868 69 l 729 69 l 729 -69 l 243 -69 "},"v":{"ha":972,"x_min":0,"x_max":0,"o":"m 313 694 l 313 278 l 382 278 l 382 139 l 590 139 l 590 278 l 660 278 l 660 694 l 868 694 l 868 278 l 799 278 l 799 69 l 660 69 l 660 -69 l 313 -69 l 313 69 l 174 69 l 174 278 l 104 278 l 104 694 "},"w":{"ha":972,"x_min":0,"x_max":0,"o":"m 313 694 l 313 208 l 382 208 l 382 556 l 590 556 l 590 208 l 660 208 l 660 694 l 868 694 l 868 69 l 729 69 l 729 -69 l 521 -69 l 521 139 l 451 139 l 451 -69 l 243 -69 l 243 69 l 104 69 l 104 694 "},"x":{"ha":972,"x_min":0,"x_max":0,"o":"m 382 278 l 382 347 l 243 347 l 243 486 l 104 486 l 104 694 l 313 694 l 313 556 l 451 556 l 451 417 l 521 417 l 521 556 l 660 556 l 660 694 l 868 694 l 868 486 l 729 486 l 729 347 l 590 347 l 590 278 l 729 278 l 729 139 l 868 139 l 868 -69 l 660 -69 l 660 69 l 521 69 l 521 208 l 451 208 l 451 69 l 313 69 l 313 -69 l 104 -69 l 104 139 l 243 139 l 243 278 "},"y":{"ha":972,"x_min":0,"x_max":0,"o":"m 313 694 l 313 278 l 660 278 l 660 694 l 868 694 l 868 -139 l 729 -139 l 729 -278 l 243 -278 l 243 -69 l 660 -69 l 660 69 l 243 69 l 243 208 l 104 208 l 104 694 "},"z":{"ha":972,"x_min":0,"x_max":0,"o":"m 104 694 l 868 694 l 868 486 l 799 486 l 799 347 l 590 347 l 590 208 l 382 208 l 382 139 l 868 139 l 868 -69 l 104 -69 l 104 139 l 174 139 l 174 278 l 382 278 l 382 417 l 590 417 l 590 486 l 104 486 "},"Α":{"ha":972,"x_min":0,"x_max":0,"o":"m 243 764 l 243 903 l 729 903 l 729 764 l 868 764 l 868 -69 l 660 -69 l 660 208 l 313 208 l 313 -69 l 104 -69 l 104 764 m 660 417 l 660 694 l 313 694 l 313 417 "},"Β":{"ha":972,"x_min":0,"x_max":0,"o":"m 104 903 l 729 903 l 729 764 l 868 764 l 868 486 l 799 486 l 799 417 l 868 417 l 868 69 l 729 69 l 729 -69 l 104 -69 m 660 139 l 660 347 l 313 347 l 313 139 m 660 556 l 660 694 l 313 694 l 313 556 "},"Γ":{"ha":972,"x_min":0,"x_max":0,"o":"m 868 903 l 868 694 l 313 694 l 313 -69 l 104 -69 l 104 903 "},"Δ":{"ha":972,"x_min":0,"x_max":0,"o":"m 104 417 l 243 417 l 243 681 l 382 681 l 382 889 l 590 889 l 590 681 l 729 681 l 729 417 l 868 417 l 868 -69 l 104 -69 m 660 139 l 660 278 l 521 278 l 521 556 l 451 556 l 451 278 l 313 278 l 313 139 "},"Ε":{"ha":972,"x_min":0,"x_max":0,"o":"m 104 903 l 868 903 l 868 694 l 313 694 l 313 556 l 868 556 l 868 347 l 313 347 l 313 139 l 868 139 l 868 -69 l 104 -69 "},"Ζ":{"ha":972,"x_min":0,"x_max":0,"o":"m 104 903 l 868 903 l 868 694 l 729 694 l 729 417 l 590 417 l 590 278 l 451 278 l 451 139 l 868 139 l 868 -69 l 104 -69 l 104 139 l 243 139 l 243 347 l 382 347 l 382 556 l 521 556 l 521 694 l 104 694 "},"Η":{"ha":972,"x_min":0,"x_max":0,"o":"m 313 903 l 313 542 l 660 542 l 660 903 l 868 903 l 868 -69 l 660 -69 l 660 333 l 313 333 l 313 -69 l 104 -69 l 104 903 "},"Θ":{"ha":972,"x_min":0,"x_max":0,"o":"m 243 139 l 104 139 l 104 694 l 243 694 l 243 833 l 382 833 l 382 903 l 590 903 l 590 833 l 729 833 l 729 694 l 868 694 l 868 139 l 729 139 l 729 0 l 590 0 l 590 -69 l 382 -69 l 382 0 l 243 0 m 451 208 l 451 139 l 521 139 l 521 208 l 660 208 l 660 625 l 521 625 l 521 694 l 451 694 l 451 625 l 313 625 l 313 208 m 382 556 l 590 556 l 590 278 l 382 278 "},"Ι":{"ha":972,"x_min":0,"x_max":0,"o":"m 868 694 l 590 694 l 590 139 l 868 139 l 868 -69 l 104 -69 l 104 139 l 382 139 l 382 694 l 104 694 l 104 903 l 868 903 "},"Κ":{"ha":972,"x_min":0,"x_max":0,"o":"m 382 278 l 313 278 l 313 -69 l 104 -69 l 104 903 l 313 903 l 313 486 l 382 486 l 382 625 l 521 625 l 521 764 l 660 764 l 660 903 l 868 903 l 868 694 l 729 694 l 729 556 l 590 556 l 590 417 l 451 417 l 451 347 l 590 347 l 590 208 l 729 208 l 729 139 l 868 139 l 868 -69 l 660 -69 l 660 0 l 521 0 l 521 139 l 382 139 "},"Λ":{"ha":972,"x_min":0,"x_max":0,"o":"m 104 764 l 243 764 l 243 903 l 729 903 l 729 764 l 868 764 l 868 -69 l 660 -69 l 660 694 l 313 694 l 313 -69 l 104 -69 "},"Μ":{"ha":972,"x_min":0,"x_max":0,"o":"m 104 903 l 313 903 l 313 764 l 451 764 l 451 625 l 521 625 l 521 764 l 660 764 l 660 903 l 868 903 l 868 -69 l 660 -69 l 660 486 l 590 486 l 590 139 l 382 139 l 382 486 l 313 486 l 313 -69 l 104 -69 "},"Ν":{"ha":972,"x_min":0,"x_max":0,"o":"m 313 903 l 313 764 l 451 764 l 451 556 l 590 556 l 590 347 l 660 347 l 660 903 l 868 903 l 868 -69 l 660 -69 l 660 69 l 521 69 l 521 278 l 382 278 l 382 486 l 313 486 l 313 -69 l 104 -69 l 104 903 "},"Ξ":{"ha":972,"x_min":0,"x_max":0,"o":"m 104 139 l 868 139 l 868 -69 l 104 -69 m 104 556 l 868 556 l 868 347 l 104 347 m 104 903 l 868 903 l 868 694 l 104 694 "},"Ο":{"ha":972,"x_min":0,"x_max":0,"o":"m 243 69 l 104 69 l 104 764 l 243 764 l 243 903 l 729 903 l 729 764 l 868 764 l 868 69 l 729 69 l 729 -69 l 243 -69 m 660 139 l 660 694 l 313 694 l 313 139 "},"Π":{"ha":972,"x_min":0,"x_max":0,"o":"m 868 903 l 868 -69 l 660 -69 l 660 694 l 313 694 l 313 -69 l 104 -69 l 104 903 "},"Ρ":{"ha":972,"x_min":0,"x_max":0,"o":"m 729 903 l 729 764 l 868 764 l 868 417 l 729 417 l 729 278 l 313 278 l 313 -69 l 104 -69 l 104 903 m 660 486 l 660 694 l 313 694 l 313 486 "},"Σ":{"ha":972,"x_min":0,"x_max":0,"o":"m 868 694 l 451 694 l 451 486 l 660 486 l 660 278 l 451 278 l 451 139 l 868 139 l 868 -69 l 104 -69 l 104 139 l 243 139 l 243 347 l 382 347 l 382 417 l 243 417 l 243 694 l 104 694 l 104 903 l 868 903 "},"Τ":{"ha":972,"x_min":0,"x_max":0,"o":"m 104 903 l 868 903 l 868 694 l 590 694 l 590 -69 l 382 -69 l 382 694 l 104 694 "},"Υ":{"ha":972,"x_min":0,"x_max":0,"o":"m 313 556 l 465 556 l 465 486 l 535 486 l 535 556 l 660 556 l 660 903 l 868 903 l 868 417 l 743 417 l 743 278 l 604 278 l 604 -69 l 396 -69 l 396 278 l 257 278 l 257 417 l 104 417 l 104 903 l 313 903 "},"Φ":{"ha":972,"x_min":0,"x_max":0,"o":"m 729 69 l 729 0 l 590 0 l 590 -69 l 382 -69 l 382 0 l 243 0 l 243 69 l 104 69 l 104 764 l 243 764 l 243 833 l 382 833 l 382 903 l 590 903 l 590 833 l 729 833 l 729 764 l 868 764 l 868 69 m 382 208 l 382 625 l 313 625 l 313 208 m 660 208 l 660 625 l 590 625 l 590 208 "},"Χ":{"ha":972,"x_min":0,"x_max":0,"o":"m 313 694 l 451 694 l 451 486 l 521 486 l 521 694 l 660 694 l 660 903 l 868 903 l 868 625 l 729 625 l 729 417 l 590 417 l 590 347 l 729 347 l 729 208 l 868 208 l 868 -69 l 660 -69 l 660 69 l 521 69 l 521 278 l 451 278 l 451 69 l 313 69 l 313 -69 l 104 -69 l 104 208 l 243 208 l 243 347 l 382 347 l 382 417 l 243 417 l 243 625 l 104 625 l 104 903 l 313 903 "},"Ψ":{"ha":972,"x_min":0,"x_max":0,"o":"m 313 486 l 396 486 l 396 903 l 604 903 l 604 486 l 660 486 l 660 903 l 868 903 l 868 417 l 799 417 l 799 278 l 604 278 l 604 -69 l 396 -69 l 396 278 l 174 278 l 174 417 l 104 417 l 104 903 l 313 903 "},"Ω":{"ha":972,"x_min":0,"x_max":0,"o":"m 729 278 l 729 139 l 882 139 l 882 -69 l 590 -69 l 590 69 l 521 69 l 521 417 l 660 417 l 660 694 l 313 694 l 313 417 l 451 417 l 451 69 l 382 69 l 382 -69 l 104 -69 l 104 139 l 243 139 l 243 278 l 104 278 l 104 764 l 243 764 l 243 903 l 729 903 l 729 764 l 868 764 l 868 278 "},"α":{"ha":972,"x_min":0,"x_max":0,"o":"m 243 0 l 104 0 l 104 556 l 243 556 l 243 694 l 729 694 l 729 556 l 799 556 l 799 139 l 868 139 l 868 -69 l 660 -69 l 660 0 l 590 0 l 590 -69 l 243 -69 m 590 139 l 590 486 l 313 486 l 313 139 "},"β":{"ha":972,"x_min":0,"x_max":0,"o":"m 868 0 l 729 0 l 729 -69 l 313 -69 l 313 -208 l 104 -208 l 104 694 l 729 694 l 729 556 l 868 556 m 660 139 l 660 208 l 313 208 l 313 139 m 660 417 l 660 486 l 313 486 l 313 417 "},"γ":{"ha":972,"x_min":0,"x_max":0,"o":"m 313 278 l 104 278 l 104 694 l 313 694 m 313 278 l 660 278 l 660 69 l 590 69 l 590 -221 l 382 -222 l 382 69 l 313 69 m 576 764 l 785 765 l 785 694 l 868 694 l 868 278 l 660 278 l 660 542 l 576 542 "},"δ":{"ha":972,"x_min":0,"x_max":0,"o":"m 729 0 l 729 -69 l 104 -69 l 104 417 l 660 417 l 660 486 l 313 486 l 313 625 l 174 625 l 174 833 l 313 833 l 313 972 l 799 972 l 799 764 l 382 764 l 382 694 l 799 694 l 799 625 l 868 625 l 868 0 m 660 139 l 660 208 l 313 208 l 313 139 "},"ε":{"ha":972,"x_min":0,"x_max":0,"o":"m 868 486 l 313 486 l 313 417 l 868 417 l 868 208 l 313 208 l 313 139 l 868 139 l 868 -69 l 243 -69 l 243 69 l 104 69 l 104 278 l 243 278 l 243 347 l 104 347 l 104 556 l 243 556 l 243 694 l 868 694 "},"ζ":{"ha":972,"x_min":0,"x_max":0,"o":"m 799 486 l 729 486 l 729 347 l 590 347 l 590 208 l 313 208 l 313 69 l 799 69 l 799 0 l 868 0 l 868 -278 l 660 -278 l 660 -139 l 229 -139 l 229 0 l 104 0 l 104 347 l 243 347 l 243 417 l 521 417 l 521 486 l 243 486 l 243 694 l 799 694 "},"η":{"ha":972,"x_min":0,"x_max":0,"o":"m 729 625 l 868 625 l 868 -208 l 660 -208 l 660 486 l 382 486 l 382 -69 l 174 -69 l 174 486 l 104 486 l 104 694 l 729 694 "},"θ":{"ha":972,"x_min":0,"x_max":0,"o":"m 174 69 l 104 69 l 104 556 l 174 556 l 174 694 l 799 694 l 799 556 l 868 556 l 868 69 l 799 69 l 799 -69 l 174 -69 m 660 139 l 660 208 l 313 208 l 313 139 m 660 417 l 660 486 l 313 486 l 313 417 "},"ι":{"ha":972,"x_min":0,"x_max":0,"o":"m 521 139 l 868 139 l 868 -69 l 451 -69 l 451 69 l 313 69 l 313 486 l 104 486 l 104 694 l 521 694 "},"κ":{"ha":972,"x_min":0,"x_max":0,"o":"m 451 208 l 313 208 l 313 -69 l 104 -69 l 104 694 l 313 694 l 313 417 l 451 417 l 451 556 l 660 556 l 660 694 l 868 694 l 868 486 l 660 486 l 660 347 l 451 347 l 451 278 l 660 278 l 660 139 l 868 139 l 868 -69 l 660 -69 l 660 69 l 451 69 "},"λ":{"ha":972,"x_min":0,"x_max":0,"o":"m 451 208 l 382 208 l 382 69 l 313 69 l 313 -69 l 104 -69 l 104 139 l 174 139 l 174 278 l 313 278 l 313 486 l 104 486 l 104 694 l 451 694 l 451 556 l 521 556 l 521 417 l 660 417 l 660 139 l 868 139 l 868 -69 l 660 -69 l 660 69 l 451 69 "},"μ":{"ha":972,"x_min":0,"x_max":0,"o":"m 313 -208 l 104 -208 l 104 694 l 313 694 l 313 139 l 521 139 l 521 694 l 729 694 l 729 139 l 868 139 l 868 -69 l 313 -69 "},"ν":{"ha":972,"x_min":0,"x_max":0,"o":"m 313 139 l 104 139 l 104 694 l 313 694 m 313 139 l 660 139 l 660 -69 l 313 -69 m 590 764 l 799 764 l 799 694 l 868 694 l 868 139 l 660 139 l 660 556 l 590 556 "},"ξ":{"ha":972,"x_min":0,"x_max":0,"o":"m 868 347 l 521 347 l 521 139 l 382 139 l 382 69 l 799 69 l 799 0 l 868 0 l 868 -278 l 660 -278 l 660 -139 l 299 -139 l 299 0 l 174 0 l 174 278 l 313 278 l 313 347 l 174 347 l 174 486 l 104 486 l 104 694 l 174 694 l 174 833 l 868 833 l 868 625 l 313 625 l 313 556 l 868 556 "},"ο":{"ha":972,"x_min":0,"x_max":0,"o":"m 243 69 l 104 69 l 104 556 l 243 556 l 243 694 l 729 694 l 729 556 l 868 556 l 868 69 l 729 69 l 729 -69 l 243 -69 m 660 139 l 660 486 l 313 486 l 313 139 "},"π":{"ha":972,"x_min":0,"x_max":0,"o":"m 868 486 l 799 486 l 799 -69 l 590 -69 l 590 486 l 382 486 l 382 0 l 313 0 l 313 -69 l 104 -69 l 104 139 l 174 139 l 174 486 l 104 486 l 104 694 l 868 694 "},"ρ":{"ha":972,"x_min":0,"x_max":0,"o":"m 729 694 l 729 556 l 868 556 l 868 69 l 729 69 l 729 -69 l 313 -69 l 313 -278 l 104 -278 l 104 694 m 660 139 l 660 486 l 313 486 l 313 139 "},"σ":{"ha":972,"x_min":0,"x_max":0,"o":"m 104 -69 l 104 694 l 868 694 l 868 486 l 729 486 l 729 -69 m 521 139 l 521 486 l 313 486 l 313 139 "},"τ":{"ha":972,"x_min":0,"x_max":0,"o":"m 868 694 l 868 486 l 521 486 l 521 139 l 868 139 l 868 -69 l 451 -69 l 451 0 l 313 0 l 313 486 l 104 486 l 104 694 "},"υ":{"ha":972,"x_min":0,"x_max":0,"o":"m 313 139 l 660 139 l 660 542 l 590 542 l 590 750 l 799 750 l 799 681 l 868 681 l 868 69 l 729 69 l 729 -69 l 243 -69 l 243 69 l 104 69 l 104 681 l 313 681 "},"φ":{"ha":972,"x_min":0,"x_max":0,"o":"m 729 0 l 729 -69 l 590 -69 l 590 -139 l 382 -139 l 382 -69 l 243 -69 l 243 0 l 104 0 l 104 625 l 243 625 l 243 694 l 382 694 l 382 764 l 590 764 l 590 694 l 729 694 l 729 625 l 868 625 l 868 0 m 382 139 l 382 486 l 313 486 l 313 139 m 660 139 l 660 486 l 590 486 l 590 139 "},"χ":{"ha":972,"x_min":0,"x_max":0,"o":"m 382 278 l 382 347 l 243 347 l 243 486 l 104 486 l 104 694 l 313 694 l 313 556 l 451 556 l 451 417 l 521 417 l 521 556 l 660 556 l 660 694 l 868 694 l 868 486 l 729 486 l 729 347 l 590 347 l 590 278 l 729 278 l 729 139 l 868 139 l 868 -69 l 660 -69 l 660 69 l 521 69 l 521 208 l 451 208 l 451 69 l 313 69 l 313 -69 l 104 -69 l 104 139 l 243 139 l 243 278 "},"ψ":{"ha":1111,"x_min":0,"x_max":0,"o":"m 382 347 l 451 347 l 451 764 l 660 764 l 660 347 l 729 347 l 729 556 l 799 556 l 799 694 l 1007 694 l 1007 417 l 938 417 l 938 208 l 799 208 l 799 139 l 660 139 l 660 -69 l 451 -69 l 451 139 l 313 139 l 313 208 l 174 208 l 174 417 l 104 417 l 104 694 l 313 694 l 313 556 l 382 556 "},"ω":{"ha":1111,"x_min":0,"x_max":0,"o":"m 660 556 l 660 139 l 799 139 l 799 486 l 729 486 l 729 694 l 938 694 l 938 556 l 1007 556 l 1007 69 l 868 69 l 868 -69 l 590 -69 l 590 69 l 521 69 l 521 -69 l 243 -69 l 243 69 l 104 69 l 104 556 l 174 556 l 174 694 l 382 694 l 382 486 l 313 486 l 313 139 l 451 139 l 451 556 "},"Ⅰ":{"ha":972,"x_min":0,"x_max":0,"o":"m 868 694 l 590 694 l 590 139 l 868 139 l 868 -69 l 104 -69 l 104 139 l 382 139 l 382 694 l 104 694 l 104 903 l 868 903 "},"Ⅱ":{"ha":972,"x_min":0,"x_max":0,"o":"m 868 694 l 729 694 l 729 139 l 868 139 l 868 -69 l 104 -69 l 104 139 l 243 139 l 243 694 l 104 694 l 104 903 l 868 903 m 521 139 l 521 694 l 451 694 l 451 139 "},"Ⅲ":{"ha":1111,"x_min":0,"x_max":0,"o":"m 1007 694 l 938 694 l 938 139 l 1007 139 l 1007 -69 l 104 -69 l 104 139 l 174 139 l 174 694 l 104 694 l 104 903 l 1007 903 m 451 139 l 451 694 l 382 694 l 382 139 m 729 139 l 729 694 l 660 694 l 660 139 "},"Ⅳ":{"ha":1181,"x_min":0,"x_max":0,"o":"m 660 486 l 729 486 l 729 208 l 799 208 l 799 486 l 868 486 l 868 903 l 1076 903 l 1076 486 l 1007 486 l 1007 139 l 868 139 l 868 -69 l 660 -69 l 660 139 l 521 139 l 521 486 l 451 486 l 451 694 l 382 694 l 382 139 l 451 139 l 451 -69 l 104 -69 l 104 139 l 174 139 l 174 694 l 104 694 l 104 903 l 660 903 "},"Ⅴ":{"ha":972,"x_min":0,"x_max":0,"o":"m 313 903 l 313 486 l 382 486 l 382 208 l 590 208 l 590 486 l 660 486 l 660 903 l 868 903 l 868 486 l 799 486 l 799 139 l 590 139 l 590 -69 l 382 -69 l 382 139 l 174 139 l 174 486 l 104 486 l 104 903 "},"Ⅵ":{"ha":1181,"x_min":0,"x_max":0,"o":"m 1076 694 l 1007 694 l 1007 139 l 1076 139 l 1076 -69 l 729 -69 l 729 139 l 799 139 l 799 694 l 729 694 l 729 486 l 660 486 l 660 139 l 521 139 l 521 -69 l 313 -69 l 313 139 l 174 139 l 174 486 l 104 486 l 104 903 l 313 903 l 313 486 l 382 486 l 382 208 l 451 208 l 451 486 l 521 486 l 521 903 l 1076 903 "},"Ⅶ":{"ha":1458,"x_min":0,"x_max":0,"o":"m 1354 694 l 1285 694 l 1285 139 l 1354 139 l 1354 -69 l 729 -69 l 729 139 l 799 139 l 799 694 l 729 694 l 729 486 l 660 486 l 660 139 l 521 139 l 521 -69 l 313 -69 l 313 139 l 174 139 l 174 486 l 104 486 l 104 903 l 313 903 l 313 486 l 382 486 l 382 208 l 451 208 l 451 486 l 521 486 l 521 903 l 1354 903 m 1076 139 l 1076 694 l 1007 694 l 1007 139 "},"Ⅷ":{"ha":1736,"x_min":0,"x_max":0,"o":"m 1632 694 l 1563 694 l 1563 139 l 1632 139 l 1632 -69 l 729 -69 l 729 139 l 799 139 l 799 694 l 729 694 l 729 486 l 660 486 l 660 139 l 521 139 l 521 -69 l 313 -69 l 313 139 l 174 139 l 174 486 l 104 486 l 104 903 l 313 903 l 313 486 l 382 486 l 382 208 l 451 208 l 451 486 l 521 486 l 521 903 l 1632 903 m 1076 139 l 1076 694 l 1007 694 l 1007 139 m 1354 139 l 1354 694 l 1285 694 l 1285 139 "},"Ⅸ":{"ha":1181,"x_min":0,"x_max":0,"o":"m 660 694 l 729 694 l 729 486 l 799 486 l 799 694 l 868 694 l 868 903 l 1076 903 l 1076 625 l 1007 625 l 1007 417 l 868 417 l 868 347 l 1007 347 l 1007 208 l 1076 208 l 1076 -69 l 868 -69 l 868 69 l 799 69 l 799 278 l 729 278 l 729 69 l 660 69 l 660 -69 l 104 -69 l 104 139 l 174 139 l 174 694 l 104 694 l 104 903 l 660 903 m 451 139 l 451 208 l 521 208 l 521 347 l 660 347 l 660 417 l 521 417 l 521 625 l 451 625 l 451 694 l 382 694 l 382 139 "},"Ⅹ":{"ha":972,"x_min":0,"x_max":0,"o":"m 313 694 l 451 694 l 451 486 l 521 486 l 521 694 l 660 694 l 660 903 l 868 903 l 868 625 l 729 625 l 729 417 l 590 417 l 590 347 l 729 347 l 729 208 l 868 208 l 868 -69 l 660 -69 l 660 69 l 521 69 l 521 278 l 451 278 l 451 69 l 313 69 l 313 -69 l 104 -69 l 104 208 l 243 208 l 243 347 l 382 347 l 382 417 l 243 417 l 243 625 l 104 625 l 104 903 l 313 903 "},"Ⅺ":{"ha":1181,"x_min":0,"x_max":0,"o":"m 1076 903 l 1076 694 l 1007 694 l 1007 139 l 1076 139 l 1076 -69 l 521 -69 l 521 69 l 451 69 l 451 278 l 382 278 l 382 69 l 313 69 l 313 -69 l 104 -69 l 104 208 l 174 208 l 174 347 l 313 347 l 313 417 l 174 417 l 174 625 l 104 625 l 104 903 l 313 903 l 313 694 l 382 694 l 382 486 l 451 486 l 451 694 l 521 694 l 521 903 m 660 347 l 660 208 l 729 208 l 729 139 l 799 139 l 799 694 l 729 694 l 729 625 l 660 625 l 660 417 l 521 417 l 521 347 "},"Ⅻ":{"ha":1458,"x_min":0,"x_max":0,"o":"m 1354 903 l 1354 694 l 1285 694 l 1285 139 l 1354 139 l 1354 -69 l 521 -69 l 521 69 l 451 69 l 451 278 l 382 278 l 382 69 l 313 69 l 313 -69 l 104 -69 l 104 208 l 174 208 l 174 347 l 313 347 l 313 417 l 174 417 l 174 625 l 104 625 l 104 903 l 313 903 l 313 694 l 382 694 l 382 486 l 451 486 l 451 694 l 521 694 l 521 903 m 660 347 l 660 208 l 729 208 l 729 139 l 799 139 l 799 694 l 729 694 l 729 625 l 660 625 l 660 417 l 521 417 l 521 347 m 1076 139 l 1076 694 l 1007 694 l 1007 139 "},"ⅰ":{"ha":417,"x_min":0,"x_max":0,"o":"m 313 417 l 313 -69 l 104 -69 l 104 417 m 104 694 l 313 694 l 313 486 l 104 486 "},"ⅱ":{"ha":694,"x_min":0,"x_max":0,"o":"m 590 417 l 590 -69 l 382 -69 l 382 417 m 104 417 l 313 417 l 313 -69 l 104 -69 m 104 694 l 313 694 l 313 486 l 104 486 m 382 694 l 590 694 l 590 486 l 382 486 "},"ⅲ":{"ha":972,"x_min":0,"x_max":0,"o":"m 590 417 l 590 -69 l 382 -69 l 382 417 m 104 417 l 313 417 l 313 -69 l 104 -69 m 104 694 l 313 694 l 313 486 l 104 486 m 382 694 l 590 694 l 590 486 l 382 486 m 660 417 l 868 417 l 868 -69 l 660 -69 m 660 694 l 868 694 l 868 486 l 660 486 "},"ⅳ":{"ha":1111,"x_min":0,"x_max":0,"o":"m 313 417 l 313 -69 l 104 -69 l 104 417 m 104 694 l 313 694 l 313 486 l 104 486 m 382 694 l 590 694 l 590 278 l 660 278 l 660 139 l 729 139 l 729 278 l 799 278 l 799 694 l 1007 694 l 1007 278 l 938 278 l 938 69 l 799 69 l 799 -69 l 590 -69 l 590 69 l 451 69 l 451 278 l 382 278 "},"ⅴ":{"ha":903,"x_min":0,"x_max":0,"o":"m 313 694 l 313 278 l 382 278 l 382 139 l 521 139 l 521 278 l 590 278 l 590 694 l 799 694 l 799 278 l 729 278 l 729 69 l 590 69 l 590 -69 l 313 -69 l 313 69 l 174 69 l 174 278 l 104 278 l 104 694 "},"ⅵ":{"ha":1111,"x_min":0,"x_max":0,"o":"m 1007 -69 l 799 -69 l 799 417 l 1007 417 m 104 694 l 313 694 l 313 278 l 382 278 l 382 139 l 451 139 l 451 278 l 521 278 l 521 694 l 729 694 l 729 278 l 660 278 l 660 69 l 521 69 l 521 -69 l 313 -69 l 313 69 l 174 69 l 174 278 l 104 278 m 799 694 l 1007 694 l 1007 486 l 799 486 "},"ⅶ":{"ha":1389,"x_min":0,"x_max":0,"o":"m 1007 -69 l 799 -69 l 799 417 l 1007 417 m 104 694 l 313 694 l 313 278 l 382 278 l 382 139 l 451 139 l 451 278 l 521 278 l 521 694 l 729 694 l 729 278 l 660 278 l 660 69 l 521 69 l 521 -69 l 313 -69 l 313 69 l 174 69 l 174 278 l 104 278 m 799 694 l 1007 694 l 1007 486 l 799 486 m 1076 417 l 1285 417 l 1285 -69 l 1076 -69 m 1076 694 l 1285 694 l 1285 486 l 1076 486 "},"ⅷ":{"ha":1389,"x_min":0,"x_max":0,"o":"m 868 278 l 868 347 l 729 347 l 729 486 l 660 486 l 660 694 l 868 694 l 868 556 l 938 556 l 938 417 l 1007 417 l 1007 556 l 1076 556 l 1076 694 l 1285 694 l 1285 486 l 1215 486 l 1215 347 l 1076 347 l 1076 278 l 1215 278 l 1215 139 l 1285 139 l 1285 -69 l 1076 -69 l 1076 69 l 1007 69 l 1007 208 l 938 208 l 938 69 l 868 69 l 868 -69 l 660 -69 l 660 139 l 729 139 l 729 278 m 104 417 l 313 417 l 313 -69 l 104 -69 m 104 694 l 313 694 l 313 486 l 104 486 m 382 417 l 590 417 l 590 -69 l 382 -69 m 382 694 l 590 694 l 590 486 l 382 486 "},"ⅸ":{"ha":1111,"x_min":0,"x_max":0,"o":"m 590 278 l 590 347 l 451 347 l 451 486 l 382 486 l 382 694 l 590 694 l 590 556 l 660 556 l 660 417 l 729 417 l 729 556 l 799 556 l 799 694 l 1007 694 l 1007 486 l 938 486 l 938 347 l 799 347 l 799 278 l 938 278 l 938 139 l 1007 139 l 1007 -69 l 799 -69 l 799 69 l 729 69 l 729 208 l 660 208 l 660 69 l 590 69 l 590 -69 l 382 -69 l 382 139 l 451 139 l 451 278 m 104 417 l 313 417 l 313 -69 l 104 -69 m 104 694 l 313 694 l 313 486 l 104 486 "},"ⅹ":{"ha":972,"x_min":0,"x_max":0,"o":"m 382 278 l 382 347 l 243 347 l 243 486 l 104 486 l 104 694 l 313 694 l 313 556 l 451 556 l 451 417 l 521 417 l 521 556 l 660 556 l 660 694 l 868 694 l 868 486 l 729 486 l 729 347 l 590 347 l 590 278 l 729 278 l 729 139 l 868 139 l 868 -69 l 660 -69 l 660 69 l 521 69 l 521 208 l 451 208 l 451 69 l 313 69 l 313 -69 l 104 -69 l 104 139 l 243 139 l 243 278 "},"、":{"ha":694,"x_min":0,"x_max":0,"o":"m 174 -69 l 174 0 l 104 0 l 104 208 l 313 208 l 313 139 l 382 139 l 382 -69 "},"。":{"ha":972,"x_min":0,"x_max":0,"o":"m 243 0 l 104 0 l 104 208 l 243 208 l 243 347 l 451 347 l 451 208 l 590 208 l 590 0 l 451 0 l 451 -139 l 243 -139 m 382 69 l 382 139 l 313 139 l 313 69 "},"・":{"ha":1042,"x_min":0,"x_max":0,"o":"m 417 208 l 417 278 l 347 278 l 347 486 l 417 486 l 417 556 l 625 556 l 625 486 l 694 486 l 694 278 l 625 278 l 625 208 "},"･":{"ha":903,"x_min":0,"x_max":0,"o":"m 347 278 l 347 486 l 556 486 l 556 278 "},".":{"ha":417,"x_min":0,"x_max":0,"o":"m 313 -69 l 104 -69 l 104 139 l 313 139 "},",":{"ha":972,"x_min":0,"x_max":0,"o":"m 313 0 l 313 -69 l 104 -69 l 104 139 l 243 139 l 243 278 l 451 278 l 451 0 "},":":{"ha":833,"x_min":0,"x_max":0,"o":"m 313 -69 l 104 -69 l 104 139 l 313 139 m 104 417 l 313 417 l 313 208 l 104 208 "},";":{"ha":972,"x_min":0,"x_max":0,"o":"m 313 0 l 313 -69 l 104 -69 l 104 139 l 229 139 l 229 278 l 438 278 l 438 0 m 229 556 l 438 556 l 438 347 l 229 347 "},"…":{"ha":972,"x_min":0,"x_max":0,"o":"m 313 -69 l 104 -69 l 104 139 l 313 139 m 382 139 l 590 139 l 590 -69 l 382 -69 m 660 139 l 868 139 l 868 -69 l 660 -69 "},"!":{"ha":972,"x_min":0,"x_max":0,"o":"m 104 972 l 313 972 l 313 208 l 104 208 m 104 139 l 313 139 l 313 -69 l 104 -69 "},"¡":{"ha":972,"x_min":0,"x_max":0,"o":"m 313 694 l 313 -69 l 104 -69 l 104 694 m 104 972 l 313 972 l 313 764 l 104 764 "},"?":{"ha":972,"x_min":0,"x_max":0,"o":"m 104 208 l 313 208 l 313 0 l 104 0 m 104 486 l 313 486 l 313 625 l 104 625 l 104 833 l 382 833 l 382 625 l 521 625 l 521 417 l 313 417 l 313 278 l 104 278 "},"¿":{"ha":972,"x_min":0,"x_max":0,"o":"m 521 625 l 313 625 l 313 833 l 521 833 m 104 417 l 313 417 l 313 556 l 521 556 l 521 347 l 313 347 l 313 208 l 521 208 l 521 0 l 243 0 l 243 208 l 104 208 "},"·":{"ha":833,"x_min":0,"x_max":0,"o":"m 521 278 l 313 278 l 313 486 l 521 486 "},"•":{"ha":833,"x_min":0,"x_max":0,"o":"m 660 139 l 174 139 l 174 625 l 660 625 m 451 347 l 451 417 l 382 417 l 382 347 "},"*":{"ha":833,"x_min":0,"x_max":0,"o":"m 382 764 l 451 764 l 451 903 l 660 903 l 660 694 l 521 694 l 521 625 l 660 625 l 660 417 l 451 417 l 451 556 l 382 556 l 382 417 l 174 417 l 174 625 l 313 625 l 313 694 l 174 694 l 174 903 l 382 903 "},"〃":{"ha":694,"x_min":0,"x_max":0,"o":"m 243 347 l 243 278 l 35 278 l 35 486 l 104 486 l 104 625 l 313 625 l 313 347 m 382 486 l 451 486 l 451 625 l 660 625 l 660 347 l 590 347 l 590 278 l 382 278 "},"#":{"ha":972,"x_min":0,"x_max":0,"o":"m 104 486 l 104 694 l 313 694 l 313 903 l 521 903 l 521 694 l 590 694 l 590 903 l 799 903 l 799 694 l 868 694 l 868 486 l 729 486 l 729 347 l 868 347 l 868 139 l 660 139 l 660 -69 l 451 -69 l 451 139 l 382 139 l 382 -69 l 174 -69 l 174 139 l 104 139 l 104 347 l 243 347 l 243 486 m 521 347 l 521 486 l 451 486 l 451 347 "},"/":{"ha":972,"x_min":0,"x_max":0,"o":"m 729 903 l 729 625 l 590 625 l 590 417 l 451 417 l 451 208 l 313 208 l 313 -69 l 104 -69 l 104 208 l 243 208 l 243 472 l 382 472 l 382 694 l 521 694 l 521 903 "},"\\":{"ha":972,"x_min":0,"x_max":0,"o":"m 313 694 l 451 694 l 451 472 l 590 472 l 590 208 l 729 208 l 729 -69 l 521 -69 l 521 208 l 382 208 l 382 417 l 243 417 l 243 625 l 104 625 l 104 903 l 313 903 "},"‥":{"ha":833,"x_min":0,"x_max":0,"o":"m 104 208 l 313 208 l 313 0 l 104 0 m 521 208 l 729 208 l 729 0 l 521 0 "},"‖":{"ha":1042,"x_min":0,"x_max":0,"o":"m 451 903 l 451 -139 l 243 -139 l 243 903 m 590 903 l 799 903 l 799 -139 l 590 -139 "},"※":{"ha":1250,"x_min":0,"x_max":0,"o":"m 243 0 l 243 208 l 382 208 l 382 347 l 521 347 l 521 417 l 382 417 l 382 556 l 243 556 l 243 764 l 451 764 l 451 625 l 590 625 l 590 486 l 660 486 l 660 625 l 799 625 l 799 764 l 1007 764 l 1007 556 l 868 556 l 868 417 l 729 417 l 729 347 l 868 347 l 868 208 l 1007 208 l 1007 0 l 799 0 l 799 139 l 660 139 l 660 278 l 590 278 l 590 139 l 451 139 l 451 0 m 104 486 l 313 486 l 313 278 l 104 278 m 521 69 l 729 69 l 729 -139 l 521 -139 m 521 903 l 729 903 l 729 694 l 521 694 m 938 486 l 1146 486 l 1146 278 l 938 278 "},"︰":{"ha":694,"x_min":0,"x_max":0,"o":"m 451 69 l 243 69 l 243 278 l 451 278 m 243 694 l 451 694 l 451 486 l 243 486 "},"︳":{"ha":972,"x_min":0,"x_max":0,"o":"m 451 972 l 451 -139 l 243 -139 l 243 972 "},"︴":{"ha":972,"x_min":0,"x_max":0,"o":"m 451 903 l 451 764 l 521 764 l 521 556 l 451 556 l 451 417 l 521 417 l 521 208 l 451 208 l 451 69 l 521 69 l 521 -139 l 313 -139 l 313 0 l 243 0 l 243 278 l 313 278 l 313 347 l 243 347 l 243 625 l 313 625 l 313 694 l 243 694 l 243 972 l 313 972 l 313 1111 l 521 1111 l 521 903 "},"＆":{"ha":972,"x_min":0,"x_max":0,"o":"m 243 -69 l 243 0 l 104 0 l 104 347 l 243 347 l 243 417 l 174 417 l 174 764 l 313 764 l 313 903 l 590 903 l 590 764 l 729 764 l 729 486 l 868 486 l 868 278 l 729 278 l 729 208 l 868 208 l 868 0 l 660 0 l 660 69 l 590 69 l 590 -69 m 521 139 l 521 208 l 382 208 l 382 278 l 313 278 l 313 139 m 451 556 l 451 486 l 521 486 l 521 694 l 382 694 l 382 556 m 660 347 l 660 417 l 590 417 l 590 347 "},"＊":{"ha":833,"x_min":0,"x_max":0,"o":"m 382 764 l 451 764 l 451 903 l 660 903 l 660 694 l 521 694 l 521 625 l 660 625 l 660 417 l 451 417 l 451 556 l 382 556 l 382 417 l 174 417 l 174 625 l 313 625 l 313 694 l 174 694 l 174 903 l 382 903 "},"＠":{"ha":1042,"x_min":0,"x_max":0,"o":"m 382 625 l 729 625 l 729 694 l 313 694 l 313 69 l 799 69 l 799 -139 l 243 -139 l 243 0 l 104 0 l 104 764 l 243 764 l 243 903 l 799 903 l 799 764 l 938 764 l 938 417 l 868 417 l 868 139 l 382 139 m 660 347 l 660 417 l 590 417 l 590 347 "},"＼":{"ha":972,"x_min":0,"x_max":0,"o":"m 313 694 l 451 694 l 451 472 l 590 472 l 590 208 l 729 208 l 729 -69 l 521 -69 l 521 208 l 382 208 l 382 417 l 243 417 l 243 625 l 104 625 l 104 903 l 313 903 "},"：":{"ha":833,"x_min":0,"x_max":0,"o":"m 313 -69 l 104 -69 l 104 139 l 313 139 m 104 417 l 313 417 l 313 208 l 104 208 "},"，":{"ha":833,"x_min":0,"x_max":0,"o":"m 313 0 l 313 -69 l 104 -69 l 104 139 l 243 139 l 243 278 l 451 278 l 451 0 "},"！":{"ha":694,"x_min":0,"x_max":0,"o":"m 104 764 l 313 764 l 313 208 l 104 208 m 104 139 l 313 139 l 313 -69 l 104 -69 "},"＃":{"ha":972,"x_min":0,"x_max":0,"o":"m 104 486 l 104 694 l 313 694 l 313 903 l 521 903 l 521 694 l 590 694 l 590 903 l 799 903 l 799 694 l 868 694 l 868 486 l 729 486 l 729 347 l 868 347 l 868 139 l 660 139 l 660 -69 l 451 -69 l 451 139 l 382 139 l 382 -69 l 174 -69 l 174 139 l 104 139 l 104 347 l 243 347 l 243 486 m 521 347 l 521 486 l 451 486 l 451 347 "},"％":{"ha":1389,"x_min":0,"x_max":0,"o":"m 451 139 l 451 347 l 590 347 l 590 556 l 521 556 l 521 417 l 243 417 l 243 556 l 104 556 l 104 764 l 243 764 l 243 903 l 521 903 l 521 764 l 660 764 l 660 556 l 729 556 l 729 764 l 799 764 l 799 903 l 1146 903 l 1146 694 l 938 694 l 938 486 l 799 486 l 799 347 l 660 347 l 660 69 l 521 69 l 521 -69 l 243 -69 l 243 139 m 451 625 l 451 694 l 313 694 l 313 625 m 729 278 l 868 278 l 868 417 l 1146 417 l 1146 278 l 1285 278 l 1285 69 l 1146 69 l 1146 -69 l 868 -69 l 868 69 l 729 69 m 1076 139 l 1076 208 l 938 208 l 938 139 "},"．":{"ha":417,"x_min":0,"x_max":0,"o":"m 313 -69 l 104 -69 l 104 139 l 313 139 "},"？":{"ha":833,"x_min":0,"x_max":0,"o":"m 174 208 l 174 417 l 382 417 l 382 694 l 243 694 l 243 556 l 35 556 l 35 764 l 174 764 l 174 903 l 451 903 l 451 764 l 590 764 l 590 347 l 382 347 l 382 208 m 174 139 l 382 139 l 382 -69 l 174 -69 "},"＂":{"ha":972,"x_min":0,"x_max":0,"o":"m 313 694 l 313 625 l 104 625 l 104 833 l 174 833 l 174 972 l 382 972 l 382 694 m 451 833 l 521 833 l 521 972 l 729 972 l 729 694 l 660 694 l 660 625 l 451 625 "},"＇":{"ha":972,"x_min":0,"x_max":0,"o":"m 243 625 l 243 556 l 35 556 l 35 764 l 104 764 l 104 903 l 313 903 l 313 625 "},"；":{"ha":972,"x_min":0,"x_max":0,"o":"m 313 0 l 313 -69 l 104 -69 l 104 139 l 229 139 l 229 278 l 438 278 l 438 0 m 229 556 l 438 556 l 438 347 l 229 347 "},"／":{"ha":972,"x_min":0,"x_max":0,"o":"m 729 903 l 729 625 l 590 625 l 590 417 l 451 417 l 451 208 l 313 208 l 313 -69 l 104 -69 l 104 208 l 243 208 l 243 472 l 382 472 l 382 694 l 521 694 l 521 903 "},"＿":{"ha":833,"x_min":0,"x_max":0,"o":"m 104 139 l 729 139 l 729 -69 l 104 -69 "},"-":{"ha":625,"x_min":0,"x_max":0,"o":"m 104 486 l 521 486 l 521 278 l 104 278 "},"­":{"ha":833,"x_min":0,"x_max":0,"o":""},"–":{"ha":833,"x_min":0,"x_max":0,"o":"m 104 486 l 729 486 l 729 278 l 104 278 "},"—":{"ha":1250,"x_min":0,"x_max":0,"o":"m 104 486 l 1146 486 l 1146 278 l 104 278 "},"_":{"ha":833,"x_min":0,"x_max":0,"o":"m 104 139 l 729 139 l 729 -69 l 104 -69 "},"‐":{"ha":694,"x_min":0,"x_max":0,"o":"m 104 486 l 590 486 l 590 278 l 104 278 "},"―":{"ha":1389,"x_min":0,"x_max":0,"o":"m 104 486 l 1285 486 l 1285 278 l 104 278 "},"︱":{"ha":694,"x_min":0,"x_max":0,"o":"m 451 903 l 451 -139 l 243 -139 l 243 903 "},"〜":{"ha":972,"x_min":0,"x_max":0,"o":"m 104 417 l 313 417 l 313 556 l 522 556 l 522 417 l 658 417 l 658 556 l 868 556 l 868 347 l 731 347 l 731 208 l 451 208 l 451 347 l 314 347 l 314 208 l 104 208 "},"－":{"ha":625,"x_min":0,"x_max":0,"o":"m 104 486 l 521 486 l 521 278 l 104 278 "},"(":{"ha":972,"x_min":0,"x_max":0,"o":"m 243 -69 l 243 69 l 104 69 l 104 764 l 243 764 l 243 903 l 451 903 l 451 694 l 313 694 l 313 139 l 451 139 l 451 -69 "},")":{"ha":972,"x_min":0,"x_max":0,"o":"m 521 139 l 660 139 l 660 694 l 521 694 l 521 903 l 729 903 l 729 764 l 868 764 l 868 69 l 729 69 l 729 -69 l 521 -69 "},"{":{"ha":972,"x_min":0,"x_max":0,"o":"m 382 -69 l 382 69 l 243 69 l 243 278 l 104 278 l 104 486 l 243 486 l 243 764 l 382 764 l 382 903 l 590 903 l 590 694 l 451 694 l 451 417 l 313 417 l 313 347 l 451 347 l 451 139 l 590 139 l 590 -69 "},"}":{"ha":972,"x_min":0,"x_max":0,"o":"m 382 139 l 521 139 l 521 347 l 660 347 l 660 417 l 521 417 l 521 694 l 382 694 l 382 903 l 590 903 l 590 764 l 729 764 l 729 486 l 868 486 l 868 278 l 729 278 l 729 69 l 590 69 l 590 -69 l 382 -69 "},"[":{"ha":972,"x_min":0,"x_max":0,"o":"m 521 694 l 313 694 l 313 139 l 521 139 l 521 -69 l 104 -69 l 104 903 l 521 903 "},"]":{"ha":972,"x_min":0,"x_max":0,"o":"m 868 -69 l 451 -69 l 451 139 l 660 139 l 660 694 l 451 694 l 451 903 l 868 903 "},"〈":{"ha":833,"x_min":0,"x_max":0,"o":"m 521 -69 l 521 69 l 382 69 l 382 278 l 243 278 l 243 486 l 382 486 l 382 694 l 521 694 l 521 833 l 729 833 l 729 625 l 590 625 l 590 417 l 451 417 l 451 347 l 590 347 l 590 139 l 729 139 l 729 -69 "},"〉":{"ha":833,"x_min":0,"x_max":0,"o":"m 104 139 l 243 139 l 243 347 l 382 347 l 382 417 l 243 417 l 243 625 l 104 625 l 104 833 l 313 833 l 313 694 l 451 694 l 451 486 l 590 486 l 590 278 l 451 278 l 451 69 l 313 69 l 313 -69 l 104 -69 "},"【":{"ha":833,"x_min":0,"x_max":0,"o":"m 382 -69 l 382 833 l 729 833 l 729 625 l 590 625 l 590 486 l 521 486 l 521 278 l 590 278 l 590 139 l 729 139 l 729 -69 "},"】":{"ha":833,"x_min":0,"x_max":0,"o":"m 104 139 l 243 139 l 243 278 l 313 278 l 313 486 l 243 486 l 243 625 l 104 625 l 104 833 l 451 833 l 451 -69 l 104 -69 "},"｛":{"ha":972,"x_min":0,"x_max":0,"o":"m 382 -69 l 382 69 l 243 69 l 243 278 l 104 278 l 104 486 l 243 486 l 243 764 l 382 764 l 382 903 l 590 903 l 590 694 l 451 694 l 451 417 l 313 417 l 313 347 l 451 347 l 451 139 l 590 139 l 590 -69 "},"｝":{"ha":972,"x_min":0,"x_max":0,"o":"m 382 139 l 521 139 l 521 347 l 660 347 l 660 417 l 521 417 l 521 694 l 382 694 l 382 903 l 590 903 l 590 764 l 729 764 l 729 486 l 868 486 l 868 278 l 729 278 l 729 69 l 590 69 l 590 -69 l 382 -69 "},"「":{"ha":833,"x_min":0,"x_max":0,"o":"m 590 625 l 590 347 l 382 347 l 382 833 l 729 833 l 729 625 "},"」":{"ha":833,"x_min":0,"x_max":0,"o":"m 243 139 l 243 417 l 451 417 l 451 -69 l 104 -69 l 104 139 "},"《":{"ha":1111,"x_min":0,"x_max":0,"o":"m 799 -69 l 799 69 l 729 69 l 729 278 l 660 278 l 660 486 l 729 486 l 729 694 l 799 694 l 799 833 l 1007 833 l 1007 625 l 938 625 l 938 417 l 868 417 l 868 347 l 938 347 l 938 139 l 1007 139 l 1007 -69 m 313 486 l 382 486 l 382 694 l 451 694 l 451 833 l 660 833 l 660 625 l 590 625 l 590 417 l 521 417 l 521 347 l 590 347 l 590 139 l 660 139 l 660 -69 l 451 -69 l 451 69 l 382 69 l 382 278 l 313 278 "},"》":{"ha":1111,"x_min":0,"x_max":0,"o":"m 104 139 l 174 139 l 174 347 l 243 347 l 243 417 l 174 417 l 174 625 l 104 625 l 104 833 l 313 833 l 313 694 l 382 694 l 382 486 l 451 486 l 451 278 l 382 278 l 382 69 l 313 69 l 313 -69 l 104 -69 m 451 139 l 521 139 l 521 347 l 590 347 l 590 417 l 521 417 l 521 625 l 451 625 l 451 833 l 660 833 l 660 694 l 729 694 l 729 486 l 799 486 l 799 278 l 729 278 l 729 69 l 660 69 l 660 -69 l 451 -69 "},"〔":{"ha":833,"x_min":0,"x_max":0,"o":"m 521 -69 l 521 56 l 382 56 l 382 764 l 521 764 l 521 903 l 729 903 l 729 694 l 590 694 l 590 139 l 729 139 l 729 -69 "},"〕":{"ha":833,"x_min":0,"x_max":0,"o":"m 104 139 l 243 139 l 243 694 l 104 694 l 104 903 l 313 903 l 313 764 l 451 764 l 451 56 l 313 56 l 313 -69 l 104 -69 "},"『":{"ha":833,"x_min":0,"x_max":0,"o":"m 590 625 l 590 347 l 382 347 l 382 833 l 729 833 l 729 625 "},"』":{"ha":833,"x_min":0,"x_max":0,"o":"m 243 139 l 243 417 l 451 417 l 451 -69 l 104 -69 l 104 139 "},"〖":{"ha":833,"x_min":0,"x_max":0,"o":"m 382 -69 l 382 833 l 729 833 l 729 625 l 590 625 l 590 486 l 521 486 l 521 278 l 590 278 l 590 139 l 729 139 l 729 -69 "},"〗":{"ha":833,"x_min":0,"x_max":0,"o":"m 104 139 l 243 139 l 243 278 l 313 278 l 313 486 l 243 486 l 243 625 l 104 625 l 104 833 l 451 833 l 451 -69 l 104 -69 "},"［":{"ha":972,"x_min":0,"x_max":0,"o":"m 521 694 l 313 694 l 313 139 l 521 139 l 521 -69 l 104 -69 l 104 903 l 521 903 "},"］":{"ha":972,"x_min":0,"x_max":0,"o":"m 868 -69 l 451 -69 l 451 139 l 660 139 l 660 694 l 451 694 l 451 903 l 868 903 "},"（":{"ha":972,"x_min":0,"x_max":0,"o":"m 243 -69 l 243 69 l 104 69 l 104 764 l 243 764 l 243 903 l 451 903 l 451 694 l 313 694 l 313 139 l 451 139 l 451 -69 "},"）":{"ha":972,"x_min":0,"x_max":0,"o":"m 521 139 l 660 139 l 660 694 l 521 694 l 521 903 l 729 903 l 729 764 l 868 764 l 868 69 l 729 69 l 729 -69 l 521 -69 "},"‚":{"ha":972,"x_min":0,"x_max":0,"o":"m 313 0 l 313 -69 l 104 -69 l 104 139 l 243 139 l 243 278 l 451 278 l 451 0 "},"„":{"ha":972,"x_min":0,"x_max":0,"o":"m 313 0 l 313 -69 l 104 -69 l 104 139 l 174 139 l 174 278 l 382 278 l 382 0 m 451 139 l 521 139 l 521 278 l 729 278 l 729 0 l 660 0 l 660 -69 l 451 -69 "},"“":{"ha":972,"x_min":0,"x_max":0,"o":"m 451 972 l 660 972 l 660 833 l 729 833 l 729 625 l 521 625 l 521 694 l 451 694 m 104 972 l 313 972 l 313 833 l 382 833 l 382 625 l 174 625 l 174 694 l 104 694 "},"”":{"ha":972,"x_min":0,"x_max":0,"o":"m 313 694 l 313 625 l 104 625 l 104 833 l 174 833 l 174 972 l 382 972 l 382 694 m 451 833 l 521 833 l 521 972 l 729 972 l 729 694 l 660 694 l 660 625 l 451 625 "},"‘":{"ha":833,"x_min":0,"x_max":0,"o":"m 313 694 l 313 625 l 104 625 l 104 833 l 174 833 l 174 972 l 382 972 l 382 694 "},"’":{"ha":833,"x_min":0,"x_max":0,"o":"m 104 972 l 313 972 l 313 833 l 382 833 l 382 625 l 174 625 l 174 694 l 104 694 "},"«":{"ha":1111,"x_min":0,"x_max":0,"o":"m 799 -69 l 799 69 l 729 69 l 729 208 l 660 208 l 660 417 l 729 417 l 729 556 l 799 556 l 799 694 l 1007 694 l 1007 486 l 938 486 l 938 347 l 868 347 l 868 278 l 938 278 l 938 139 l 1007 139 l 1007 -69 m 313 417 l 382 417 l 382 556 l 451 556 l 451 694 l 660 694 l 660 486 l 590 486 l 590 347 l 521 347 l 521 278 l 590 278 l 590 139 l 660 139 l 660 -69 l 451 -69 l 451 69 l 382 69 l 382 208 l 313 208 "},"»":{"ha":1111,"x_min":0,"x_max":0,"o":"m 104 139 l 174 139 l 174 278 l 243 278 l 243 347 l 174 347 l 174 486 l 104 486 l 104 694 l 313 694 l 313 556 l 382 556 l 382 417 l 451 417 l 451 208 l 382 208 l 382 69 l 313 69 l 313 -69 l 104 -69 m 451 139 l 521 139 l 521 278 l 590 278 l 590 347 l 521 347 l 521 486 l 451 486 l 451 694 l 660 694 l 660 556 l 729 556 l 729 417 l 799 417 l 799 208 l 729 208 l 729 69 l 660 69 l 660 -69 l 451 -69 "},"‹":{"ha":972,"x_min":0,"x_max":0,"o":"m 104 486 l 243 486 l 243 694 l 382 694 l 382 833 l 590 833 l 590 556 l 451 556 l 451 417 l 382 417 l 382 347 l 451 347 l 451 208 l 590 208 l 590 -69 l 382 -69 l 382 69 l 243 69 l 243 278 l 104 278 "},"›":{"ha":833,"x_min":0,"x_max":0,"o":"m 590 278 l 590 69 l 451 69 l 451 -69 l 243 -69 l 243 208 l 382 208 l 382 347 l 451 347 l 451 417 l 382 417 l 382 556 l 243 556 l 243 833 l 451 833 l 451 694 l 590 694 l 590 486 l 729 486 l 729 278 "},"‵":{"ha":347,"x_min":0,"x_max":0,"o":"m 35 903 l 243 903 l 243 764 l 313 764 l 313 556 l 104 556 l 104 625 l 35 625 "},"〝":{"ha":486,"x_min":0,"x_max":0,"o":"m 35 764 l 104 764 l 104 833 l 244 833 l 244 764 l 311 764 l 311 833 l 451 833 l 451 694 l 383 694 l 383 625 l 243 625 l 243 694 l 175 694 l 175 625 l 35 625 "},"〞":{"ha":694,"x_min":0,"x_max":0,"o":"m 313 556 l 104 556 l 104 694 l 35 694 l 35 903 l 243 903 l 243 833 l 313 833 m 382 903 l 590 903 l 590 833 l 660 833 l 660 556 l 451 556 l 451 694 l 382 694 "},"\"":{"ha":972,"x_min":0,"x_max":0,"o":"m 313 694 l 313 625 l 104 625 l 104 833 l 174 833 l 174 972 l 382 972 l 382 694 m 451 833 l 521 833 l 521 972 l 729 972 l 729 694 l 660 694 l 660 625 l 451 625 "},"'":{"ha":347,"x_min":0,"x_max":0,"o":"m 243 625 l 243 556 l 35 556 l 35 764 l 104 764 l 104 903 l 313 903 l 313 625 "},"ƒ":{"ha":764,"x_min":0,"x_max":0,"o":"m 104 486 l 243 486 l 243 764 l 382 764 l 382 903 l 660 903 l 660 694 l 451 694 l 451 486 l 660 486 l 660 278 l 451 278 l 451 0 l 313 0 l 313 -69 l 104 -69 l 104 139 l 243 139 l 243 278 l 104 278 "},"㈱":{"ha":2083,"x_min":0,"x_max":0,"o":"m 174 -69 l 174 139 l 104 139 l 104 625 l 174 625 l 174 833 l 382 833 l 382 625 l 313 625 l 313 139 l 382 139 l 382 -69 m 938 139 l 1076 139 l 1076 278 l 1215 278 l 1215 347 l 938 347 l 938 556 l 1215 556 l 1215 625 l 938 625 l 938 903 l 1146 903 l 1146 833 l 1215 833 l 1215 972 l 1424 972 l 1424 833 l 1563 833 l 1563 625 l 1424 625 l 1424 556 l 1632 556 l 1632 347 l 1424 347 l 1424 278 l 1632 278 l 1632 139 l 1771 139 l 1771 625 l 1632 625 l 1632 833 l 1840 833 l 1840 625 l 1979 625 l 1979 139 l 1840 139 l 1840 -69 l 1632 -69 l 1632 69 l 1424 69 l 1424 -69 l 1215 -69 l 1215 69 l 1146 69 l 1146 -69 l 938 -69 "},"㎎":{"ha":1528,"x_min":0,"x_max":0,"o":"m 729 625 l 729 556 l 868 556 l 868 0 l 660 0 l 660 417 l 590 417 l 590 0 l 382 0 l 382 417 l 313 417 l 313 0 l 104 0 l 104 625 m 938 -69 l 1215 -69 l 1215 0 l 938 0 l 938 625 l 1285 625 l 1285 556 l 1424 556 l 1424 -139 l 1285 -139 l 1285 -278 l 938 -278 m 1215 208 l 1215 417 l 1146 417 l 1146 208 "},"㎏":{"ha":1250,"x_min":0,"x_max":0,"o":"m 104 903 l 313 903 l 313 417 l 382 417 l 382 625 l 590 625 l 590 347 l 521 347 l 521 208 l 590 208 l 590 0 l 382 0 l 382 208 l 313 208 l 313 0 l 104 0 m 660 -69 l 938 -69 l 938 0 l 660 0 l 660 625 l 1007 625 l 1007 556 l 1146 556 l 1146 -139 l 1007 -139 l 1007 -278 l 660 -278 m 938 208 l 938 417 l 868 417 l 868 208 "},"㎜":{"ha":1528,"x_min":0,"x_max":0,"o":"m 729 625 l 729 556 l 799 556 l 799 625 l 1285 625 l 1285 556 l 1424 556 l 1424 0 l 1215 0 l 1215 417 l 1146 417 l 1146 0 l 938 0 l 938 417 l 868 417 l 868 0 l 660 0 l 660 417 l 590 417 l 590 0 l 382 0 l 382 417 l 313 417 l 313 0 l 104 0 l 104 625 "},"㎝":{"ha":1389,"x_min":0,"x_max":0,"o":"m 1146 625 l 1146 556 l 1285 556 l 1285 0 l 1076 0 l 1076 417 l 1007 417 l 1007 0 l 799 0 l 799 417 l 729 417 l 729 0 l 521 0 l 521 625 m 104 625 l 451 625 l 451 417 l 313 417 l 313 208 l 451 208 l 451 0 l 104 0 "},"㎞":{"ha":1528,"x_min":0,"x_max":0,"o":"m 104 903 l 313 903 l 313 417 l 382 417 l 382 625 l 590 625 l 590 347 l 521 347 l 521 208 l 590 208 l 590 0 l 382 0 l 382 208 l 313 208 l 313 0 l 104 0 m 660 625 l 1285 625 l 1285 556 l 1424 556 l 1424 0 l 1215 0 l 1215 417 l 1146 417 l 1146 0 l 938 0 l 938 417 l 868 417 l 868 0 l 660 0 "},"㎡":{"ha":1389,"x_min":0,"x_max":0,"o":"m 729 625 l 729 556 l 868 556 l 868 0 l 660 0 l 660 417 l 590 417 l 590 0 l 382 0 l 382 417 l 313 417 l 313 0 l 104 0 l 104 625 m 938 556 l 1007 556 l 1007 625 l 1076 625 l 1076 694 l 938 694 l 938 903 l 1215 903 l 1215 833 l 1285 833 l 1285 625 l 1215 625 l 1215 556 l 1285 556 l 1285 347 l 938 347 "},"㏄":{"ha":972,"x_min":0,"x_max":0,"o":"m 104 625 l 451 625 l 451 417 l 313 417 l 313 208 l 451 208 l 451 0 l 104 0 m 521 625 l 868 625 l 868 417 l 729 417 l 729 208 l 868 208 l 868 0 l 521 0 "},"㏎":{"ha":1597,"x_min":0,"x_max":0,"o":"m 382 278 l 313 278 l 313 0 l 104 0 l 104 764 l 313 764 l 313 486 l 382 486 l 382 625 l 451 625 l 451 764 l 660 764 l 660 556 l 590 556 l 590 417 l 521 417 l 521 347 l 590 347 l 590 278 l 660 278 l 660 0 l 451 0 l 451 139 l 382 139 m 729 764 l 1493 764 l 1493 0 l 1285 0 l 1285 556 l 1215 556 l 1215 0 l 1007 0 l 1007 556 l 938 556 l 938 0 l 729 0 "},"㏑":{"ha":972,"x_min":0,"x_max":0,"o":"m 313 764 l 313 0 l 104 0 l 104 764 m 382 625 l 729 625 l 729 556 l 868 556 l 868 0 l 660 0 l 660 417 l 590 417 l 590 0 l 382 0 "},"㏒":{"ha":1528,"x_min":0,"x_max":0,"o":"m 313 764 l 313 0 l 104 0 l 104 764 m 382 625 l 868 625 l 868 0 l 382 0 m 660 208 l 660 417 l 590 417 l 590 208 m 938 -69 l 1215 -69 l 1215 0 l 938 0 l 938 625 l 1285 625 l 1285 556 l 1424 556 l 1424 -139 l 1285 -139 l 1285 -278 l 938 -278 m 1215 208 l 1215 417 l 1146 417 l 1146 208 "},"㏕":{"ha":1528,"x_min":0,"x_max":0,"o":"m 729 625 l 729 556 l 868 556 l 868 0 l 660 0 l 660 417 l 590 417 l 590 0 l 382 0 l 382 417 l 313 417 l 313 0 l 104 0 l 104 625 m 938 486 l 1146 486 l 1146 0 l 938 0 m 938 764 l 1146 764 l 1146 556 l 938 556 m 1215 764 l 1424 764 l 1424 0 l 1215 0 "},"♩":{"ha":833,"x_min":0,"x_max":0,"o":"m 257 0 l 257 139 l 188 139 l 188 347 l 257 347 l 257 486 l 535 486 l 535 903 l 743 903 l 743 139 l 674 139 l 674 0 m 535 208 l 535 278 l 465 278 l 465 208 "},"♪":{"ha":1042,"x_min":0,"x_max":0,"o":"m 174 0 l 174 139 l 104 139 l 104 347 l 174 347 l 174 486 l 451 486 l 451 903 l 799 903 l 799 833 l 938 833 l 938 625 l 729 625 l 729 694 l 660 694 l 660 139 l 590 139 l 590 0 m 451 208 l 451 278 l 382 278 l 382 208 "},"♫":{"ha":1250,"x_min":0,"x_max":0,"o":"m 174 -69 l 174 69 l 104 69 l 104 278 l 174 278 l 174 417 l 382 417 l 382 903 l 660 903 l 660 972 l 1146 972 l 1146 139 l 1076 139 l 1076 0 l 729 0 l 729 139 l 660 139 l 660 347 l 729 347 l 729 486 l 938 486 l 938 764 l 799 764 l 799 694 l 590 694 l 590 69 l 521 69 l 521 -69 m 382 139 l 382 208 l 313 208 l 313 139 m 938 208 l 938 278 l 868 278 l 868 208 "},"♬":{"ha":1250,"x_min":0,"x_max":0,"o":"m 174 -69 l 174 69 l 104 69 l 104 278 l 174 278 l 174 417 l 382 417 l 382 972 l 660 972 l 660 1042 l 1146 1042 l 1146 139 l 1076 139 l 1076 0 l 729 0 l 729 139 l 660 139 l 660 347 l 729 347 l 729 486 l 938 486 l 938 556 l 729 556 l 729 486 l 590 486 l 590 69 l 521 69 l 521 -69 m 382 139 l 382 208 l 313 208 l 313 139 m 729 694 l 729 764 l 590 764 l 590 694 m 938 764 l 938 833 l 799 833 l 799 764 m 938 208 l 938 278 l 868 278 l 868 208 "},"♭":{"ha":694,"x_min":0,"x_max":0,"o":"m 174 139 l 104 139 l 104 972 l 313 972 l 313 556 l 521 556 l 521 486 l 590 486 l 590 208 l 521 208 l 521 69 l 174 69 m 382 278 l 382 347 l 313 347 l 313 278 "},"♮":{"ha":694,"x_min":0,"x_max":0,"o":"m 174 208 l 104 208 l 104 764 l 313 764 l 313 625 l 521 625 l 521 556 l 590 556 l 590 0 l 382 0 l 382 139 l 174 139 m 382 347 l 382 417 l 313 417 l 313 347 "},"♯":{"ha":833,"x_min":0,"x_max":0,"o":"m 382 139 l 382 0 l 174 0 l 174 69 l 104 69 l 104 278 l 174 278 l 174 347 l 104 347 l 104 556 l 174 556 l 174 764 l 382 764 l 382 625 l 451 625 l 451 764 l 660 764 l 660 694 l 729 694 l 729 486 l 660 486 l 660 417 l 729 417 l 729 208 l 660 208 l 660 0 l 451 0 l 451 139 m 451 347 l 451 417 l 382 417 l 382 347 "},"☀":{"ha":1528,"x_min":0,"x_max":0,"o":"m 521 625 l 590 625 l 590 694 l 938 694 l 938 625 l 1007 625 l 1007 278 l 938 278 l 938 208 l 590 208 l 590 278 l 521 278 m 104 556 l 382 556 l 382 347 l 104 347 m 174 69 l 243 69 l 243 139 l 451 139 l 451 -69 l 382 -69 l 382 -139 l 174 -139 m 174 1042 l 382 1042 l 382 972 l 451 972 l 451 764 l 243 764 l 243 833 l 174 833 m 660 69 l 868 69 l 868 -208 l 660 -208 m 660 1111 l 868 1111 l 868 833 l 660 833 m 1076 139 l 1285 139 l 1285 69 l 1354 69 l 1354 -139 l 1146 -139 l 1146 -69 l 1076 -69 m 1076 972 l 1146 972 l 1146 1042 l 1354 1042 l 1354 833 l 1285 833 l 1285 764 l 1076 764 m 1146 556 l 1424 556 l 1424 347 l 1146 347 "},"☁":{"ha":1250,"x_min":0,"x_max":0,"o":"m 104 486 l 243 486 l 243 556 l 521 556 l 521 694 l 729 694 l 729 625 l 868 625 l 868 556 l 1007 556 l 1007 486 l 1146 486 l 1146 139 l 1007 139 l 1007 69 l 799 69 l 799 139 l 729 139 l 729 69 l 243 69 l 243 139 l 104 139 "},"☂":{"ha":1250,"x_min":0,"x_max":0,"o":"m 729 903 l 729 833 l 938 833 l 938 764 l 1076 764 l 1076 694 l 1146 694 l 1146 486 l 938 486 l 938 556 l 868 556 l 868 486 l 729 486 l 729 0 l 451 0 l 451 208 l 521 208 l 521 486 l 382 486 l 382 556 l 313 556 l 313 486 l 104 486 l 104 694 l 174 694 l 174 764 l 313 764 l 313 833 l 521 833 l 521 903 "},"☃":{"ha":833,"x_min":0,"x_max":0,"o":"m 243 69 l 104 69 l 104 347 l 243 347 l 243 417 l 174 417 l 174 625 l 243 625 l 243 764 l 521 764 l 521 903 l 729 903 l 729 694 l 590 694 l 590 625 l 660 625 l 660 417 l 576 417 l 576 347 l 729 347 l 729 69 l 590 69 l 590 0 l 243 0 m 521 208 l 521 278 l 313 278 l 313 208 m 451 486 l 451 556 l 382 556 l 382 486 "},"☉":{"ha":1250,"x_min":0,"x_max":0,"o":"m 1007 139 l 1007 0 l 868 0 l 868 -139 l 382 -139 l 382 0 l 243 0 l 243 139 l 104 139 l 104 625 l 243 625 l 243 764 l 382 764 l 382 903 l 868 903 l 868 764 l 1007 764 l 1007 625 l 1146 625 l 1146 139 m 451 208 l 451 69 l 799 69 l 799 208 l 938 208 l 938 556 l 799 556 l 799 694 l 451 694 l 451 556 l 313 556 l 313 208 m 521 486 l 729 486 l 729 278 l 521 278 "},"☔":{"ha":1389,"x_min":0,"x_max":0,"o":""},"★":{"ha":972,"x_min":0,"x_max":0,"o":"m 313 625 l 313 694 l 382 694 l 382 833 l 590 833 l 590 694 l 660 694 l 660 625 l 868 625 l 868 417 l 799 417 l 799 347 l 660 347 l 660 278 l 729 278 l 729 208 l 799 208 l 799 0 l 590 0 l 590 69 l 521 69 l 521 208 l 451 208 l 451 69 l 382 69 l 382 0 l 174 0 l 174 208 l 243 208 l 243 278 l 313 278 l 313 347 l 174 347 l 174 417 l 104 417 l 104 625 "},"☆":{"ha":1111,"x_min":0,"x_max":0,"o":"m 313 625 l 313 694 l 451 694 l 451 833 l 660 833 l 660 694 l 799 694 l 799 625 l 1007 625 l 1007 417 l 868 417 l 868 347 l 799 347 l 799 208 l 868 208 l 868 0 l 660 0 l 660 69 l 590 69 l 590 139 l 521 139 l 521 69 l 451 69 l 451 0 l 243 0 l 243 208 l 313 208 l 313 347 l 243 347 l 243 417 l 104 417 l 104 625 m 521 417 l 521 278 l 590 278 l 590 417 l 660 417 l 660 486 l 590 486 l 590 556 l 521 556 l 521 486 l 451 486 l 451 417 "},"☝":{"ha":833,"x_min":0,"x_max":0,"o":"m 313 556 l 521 556 l 521 472 l 729 472 l 729 69 l 590 69 l 590 -69 l 174 -69 l 174 69 l 104 69 l 104 208 l 35 208 l 35 417 l 104 417 l 104 903 l 313 903 "},"☠":{"ha":1250,"x_min":0,"x_max":0,"o":"m 938 833 l 1007 833 l 1007 347 l 1146 347 l 1146 139 l 868 139 l 868 69 l 1007 69 l 1007 -139 l 729 -139 l 729 0 l 521 0 l 521 -139 l 243 -139 l 243 69 l 382 69 l 382 139 l 104 139 l 104 347 l 243 347 l 243 833 l 313 833 l 313 903 l 938 903 m 521 417 l 521 694 l 451 694 l 451 417 m 660 278 l 660 417 l 590 417 l 590 278 m 799 417 l 799 694 l 729 694 l 729 417 "},"☹":{"ha":1389,"x_min":0,"x_max":0,"o":"m 451 486 l 451 625 l 313 625 l 313 208 l 382 208 l 382 347 l 521 347 l 521 417 l 868 417 l 868 347 l 1007 347 l 1007 208 l 1076 208 l 1076 625 l 938 625 l 938 486 l 729 486 l 729 694 l 938 694 l 938 764 l 451 764 l 451 694 l 660 694 l 660 486 m 104 694 l 243 694 l 243 833 l 382 833 l 382 972 l 1007 972 l 1007 833 l 1146 833 l 1146 694 l 1285 694 l 1285 139 l 1146 139 l 1146 0 l 1007 0 l 1007 -139 l 382 -139 l 382 0 l 243 0 l 243 139 l 104 139 m 938 69 l 938 139 l 799 139 l 799 208 l 590 208 l 590 139 l 451 139 l 451 69 "},"☺":{"ha":1389,"x_min":0,"x_max":0,"o":"m 451 486 l 451 625 l 313 625 l 313 208 l 382 208 l 382 417 l 590 417 l 590 347 l 799 347 l 799 417 l 1007 417 l 1007 208 l 1076 208 l 1076 625 l 938 625 l 938 486 l 729 486 l 729 694 l 938 694 l 938 764 l 451 764 l 451 694 l 660 694 l 660 486 m 104 694 l 243 694 l 243 833 l 382 833 l 382 972 l 1007 972 l 1007 833 l 1146 833 l 1146 694 l 1285 694 l 1285 139 l 1146 139 l 1146 0 l 1007 0 l 1007 -139 l 382 -139 l 382 0 l 243 0 l 243 139 l 104 139 m 938 69 l 938 208 l 868 208 l 868 139 l 521 139 l 521 208 l 451 208 l 451 69 "},"♀":{"ha":833,"x_min":0,"x_max":0,"o":"m 729 556 l 590 556 l 590 417 l 521 417 l 521 278 l 729 278 l 729 69 l 521 69 l 521 0 l 313 0 l 313 69 l 104 69 l 104 278 l 313 278 l 313 417 l 243 417 l 243 556 l 104 556 l 104 833 l 243 833 l 243 972 l 590 972 l 590 833 l 729 833 m 521 625 l 521 764 l 313 764 l 313 625 "},"♂":{"ha":1181,"x_min":0,"x_max":0,"o":"m 1076 972 l 1076 417 l 868 417 l 868 625 l 799 625 l 799 486 l 660 486 l 660 139 l 521 139 l 521 0 l 243 0 l 243 139 l 104 139 l 104 417 l 243 417 l 243 556 l 590 556 l 590 694 l 729 694 l 729 764 l 521 764 l 521 972 m 451 208 l 451 347 l 313 347 l 313 208 "},"⚡":{"ha":1389,"x_min":0,"x_max":0,"o":""},"⛅":{"ha":1389,"x_min":0,"x_max":0,"o":""},"⛈":{"ha":1389,"x_min":0,"x_max":0,"o":""},"✊":{"ha":1389,"x_min":0,"x_max":0,"o":""},"✋":{"ha":1389,"x_min":0,"x_max":0,"o":""},"✌":{"ha":972,"x_min":0,"x_max":0,"o":"m 451 542 l 521 542 l 521 764 l 590 764 l 590 903 l 799 903 l 799 625 l 729 625 l 729 486 l 799 486 l 799 417 l 868 417 l 868 208 l 799 208 l 799 139 l 729 139 l 729 0 l 660 0 l 660 -69 l 243 -69 l 243 69 l 104 69 l 104 278 l 174 278 l 174 417 l 243 417 l 243 625 l 174 625 l 174 903 l 382 903 l 382 764 l 451 764 "},"✍":{"ha":1181,"x_min":0,"x_max":0,"o":"m 243 417 l 243 486 l 382 486 l 382 556 l 590 556 l 590 750 l 660 750 l 660 889 l 868 889 l 868 611 l 799 611 l 799 556 l 868 556 l 868 486 l 1076 486 l 1076 139 l 799 139 l 799 69 l 590 69 l 590 0 l 313 0 l 313 -69 l 104 -69 l 104 139 l 243 139 l 243 208 l 174 208 l 174 417 m 451 208 l 451 278 l 382 278 l 382 208 "},"✨":{"ha":1389,"x_min":0,"x_max":0,"o":""},"❄":{"ha":1528,"x_min":0,"x_max":0,"o":"m 1146 208 l 1076 208 l 1076 347 l 1007 347 l 1007 208 l 868 208 l 868 139 l 1007 139 l 1007 69 l 1146 69 m 104 556 l 243 556 l 243 625 l 174 625 l 174 833 l 382 833 l 382 694 l 451 694 l 451 556 l 521 556 l 521 694 l 660 694 l 660 764 l 521 764 l 521 833 l 382 833 l 382 1042 l 590 1042 l 590 972 l 660 972 l 660 1111 l 868 1111 l 868 972 l 938 972 l 938 1042 l 1146 1042 l 1146 833 l 1007 833 l 1007 764 l 868 764 l 868 694 l 1007 694 l 1007 556 l 1076 556 l 1076 694 l 1146 694 l 1146 833 l 1354 833 l 1354 625 l 1285 625 l 1285 556 l 1424 556 l 1424 347 l 1285 347 l 1285 278 l 1354 278 l 1354 69 l 1146 69 l 1146 -139 l 938 -139 l 938 -69 l 868 -69 l 868 -208 l 660 -208 l 660 -69 l 590 -69 l 590 -139 l 382 -139 l 382 69 l 521 69 l 521 139 l 660 139 l 660 208 l 521 208 l 521 347 l 451 347 l 451 208 l 382 208 l 382 69 l 174 69 l 174 278 l 243 278 l 243 347 l 104 347 m 799 417 l 799 486 l 715 486 l 715 417 "},"@":{"ha":1042,"x_min":0,"x_max":0,"o":"m 382 625 l 729 625 l 729 694 l 313 694 l 313 69 l 799 69 l 799 -139 l 243 -139 l 243 0 l 104 0 l 104 764 l 243 764 l 243 903 l 799 903 l 799 764 l 938 764 l 938 417 l 868 417 l 868 139 l 382 139 m 660 347 l 660 417 l 590 417 l 590 347 "},"&":{"ha":1250,"x_min":0,"x_max":0,"o":"m 382 -69 l 382 0 l 243 0 l 243 347 l 382 347 l 382 417 l 313 417 l 313 764 l 451 764 l 451 903 l 729 903 l 729 764 l 868 764 l 868 486 l 1007 486 l 1007 278 l 868 278 l 868 208 l 1007 208 l 1007 0 l 799 0 l 799 69 l 729 69 l 729 -69 m 660 139 l 660 208 l 521 208 l 521 278 l 451 278 l 451 139 m 590 556 l 590 486 l 660 486 l 660 694 l 521 694 l 521 556 m 799 347 l 799 417 l 729 417 l 729 347 "},"¶":{"ha":903,"x_min":0,"x_max":0,"o":"m 521 -69 l 313 -69 l 313 417 l 174 417 l 174 486 l 104 486 l 104 694 l 174 694 l 174 764 l 313 764 l 313 833 l 521 833 m 590 833 l 799 833 l 799 -69 l 590 -69 "},"§":{"ha":764,"x_min":0,"x_max":0,"o":"m 104 833 l 243 833 l 243 972 l 660 972 l 660 764 l 313 764 l 313 694 l 521 694 l 521 625 l 660 625 l 660 0 l 521 0 l 521 -69 l 104 -69 l 104 139 l 451 139 l 451 208 l 243 208 l 243 264 l 104 264 m 451 417 l 451 486 l 313 486 l 313 417 "},"©":{"ha":1250,"x_min":0,"x_max":0,"o":"m 451 139 l 799 139 l 799 208 l 451 208 m 104 694 l 243 694 l 243 833 l 382 833 l 382 972 l 868 972 l 868 833 l 1007 833 l 1007 694 l 1146 694 l 1146 208 l 1007 208 l 1007 69 l 868 69 l 868 -69 l 382 -69 l 382 69 l 243 69 l 243 208 l 104 208 m 382 278 l 382 625 l 313 625 l 313 278 m 799 694 l 799 764 l 451 764 l 451 694 m 868 417 l 868 278 l 938 278 l 938 625 l 868 625 l 868 486 l 590 486 l 590 417 "},"®":{"ha":694,"x_min":0,"x_max":0,"o":"m 104 486 l 104 1042 l 449 1042 l 449 972 l 590 972 l 590 764 l 521 764 l 521 694 l 590 694 l 590 486 l 382 486 l 382 556 l 313 556 l 313 486 m 382 764 l 382 833 l 313 833 l 313 764 "},"™":{"ha":1389,"x_min":0,"x_max":0,"o":"m 521 764 l 382 764 l 382 486 l 174 486 l 174 764 l 35 764 l 35 972 l 521 972 m 590 972 l 938 972 l 938 833 l 1007 833 l 1007 972 l 1354 972 l 1354 486 l 1146 486 l 1146 764 l 1076 764 l 1076 486 l 868 486 l 868 764 l 799 764 l 799 486 l 590 486 "},"℅":{"ha":1250,"x_min":0,"x_max":0,"o":"m 382 139 l 382 278 l 521 278 l 521 486 l 660 486 l 660 694 l 729 694 l 729 833 l 1007 833 l 1007 625 l 868 625 l 868 486 l 729 486 l 729 278 l 799 278 l 799 417 l 1007 417 l 1007 278 l 1146 278 l 1146 0 l 1007 0 l 1007 -69 l 799 -69 l 799 0 l 660 0 l 660 278 l 590 278 l 590 69 l 451 69 l 451 -69 l 243 -69 l 243 139 m 104 833 l 451 833 l 451 625 l 313 625 l 313 556 l 451 556 l 451 347 l 104 347 m 938 139 l 938 208 l 868 208 l 868 139 "},"°":{"ha":972,"x_min":0,"x_max":0,"o":"m 243 625 l 104 625 l 104 833 l 243 833 l 243 972 l 451 972 l 451 833 l 590 833 l 590 625 l 451 625 l 451 486 l 243 486 m 382 694 l 382 764 l 313 764 l 313 694 "},"′":{"ha":833,"x_min":0,"x_max":0,"o":"m 313 694 l 313 625 l 104 625 l 104 833 l 174 833 l 174 972 l 382 972 l 382 694 "},"″":{"ha":972,"x_min":0,"x_max":0,"o":"m 313 694 l 313 625 l 104 625 l 104 833 l 174 833 l 174 972 l 382 972 l 382 694 m 451 833 l 521 833 l 521 972 l 729 972 l 729 694 l 660 694 l 660 625 l 451 625 "},"|":{"ha":694,"x_min":0,"x_max":0,"o":"m 243 903 l 451 903 l 451 -139 l 243 -139 "},"¦":{"ha":694,"x_min":0,"x_max":0,"o":"m 243 903 l 451 903 l 451 486 l 243 486 m 243 278 l 451 278 l 451 -139 l 243 -139 "},"†":{"ha":764,"x_min":0,"x_max":0,"o":"m 35 833 l 174 833 l 174 972 l 382 972 l 382 833 l 521 833 l 521 625 l 382 625 l 382 486 l 174 486 l 174 625 l 35 625 "},"‡":{"ha":764,"x_min":0,"x_max":0,"o":"m 35 972 l 174 972 l 174 1042 l 382 1042 l 382 972 l 521 972 l 521 764 l 382 764 l 382 694 l 521 694 l 521 486 l 382 486 l 382 417 l 174 417 l 174 486 l 35 486 l 35 694 l 174 694 l 174 764 l 35 764 "},"№":{"ha":1528,"x_min":0,"x_max":0,"o":"m 313 764 l 313 625 l 451 625 l 451 486 l 590 486 l 590 278 l 660 278 l 660 764 l 868 764 l 868 0 l 660 0 l 660 69 l 521 69 l 521 208 l 382 208 l 382 417 l 313 417 l 313 0 l 104 0 l 104 764 m 938 833 l 1076 833 l 1076 972 l 1285 972 l 1285 833 l 1424 833 l 1424 625 l 1285 625 l 1285 556 l 1076 556 l 1076 625 l 938 625 m 1007 486 l 1354 486 l 1354 278 l 1007 278 m 1215 694 l 1215 764 l 1146 764 l 1146 694 "},"℃":{"ha":1528,"x_min":0,"x_max":0,"o":"m 243 625 l 104 625 l 104 833 l 243 833 l 243 972 l 451 972 l 451 833 l 590 833 l 590 625 l 451 625 l 451 486 l 243 486 m 382 694 l 382 764 l 313 764 l 313 694 m 660 764 l 799 764 l 799 903 l 1424 903 l 1424 694 l 868 694 l 868 139 l 1424 139 l 1424 -69 l 799 -69 l 799 69 l 660 69 "},"℉":{"ha":1319,"x_min":0,"x_max":0,"o":"m 243 625 l 104 625 l 104 833 l 243 833 l 243 972 l 451 972 l 451 833 l 590 833 l 590 625 l 451 625 l 451 486 l 243 486 m 382 694 l 382 764 l 313 764 l 313 694 m 660 903 l 1215 903 l 1215 694 l 868 694 l 868 486 l 1215 486 l 1215 278 l 868 278 l 868 0 l 660 0 "},"℡":{"ha":1389,"x_min":0,"x_max":0,"o":"m 451 764 l 382 764 l 382 486 l 174 486 l 174 764 l 104 764 l 104 972 l 451 972 m 507 833 l 576 833 l 576 972 l 854 972 l 854 764 l 715 764 l 715 694 l 854 694 l 854 486 l 576 486 l 576 625 l 507 625 m 924 972 l 1146 972 l 1146 694 l 1285 694 l 1285 486 l 924 486 "},"〒":{"ha":694,"x_min":0,"x_max":0,"o":"m 590 278 l 451 278 l 451 0 l 243 0 l 243 278 l 104 278 l 104 486 l 590 486 m 104 764 l 590 764 l 590 556 l 104 556 "},"〓":{"ha":764,"x_min":0,"x_max":0,"o":"m 104 0 l 104 208 l 660 208 l 660 0 m 104 625 l 660 625 l 660 417 l 104 417 "},"￣":{"ha":972,"x_min":0,"x_max":0,"o":"m 104 556 l 104 764 l 868 764 l 868 556 "},"￤":{"ha":694,"x_min":0,"x_max":0,"o":"m 451 903 l 451 486 l 243 486 l 243 903 m 243 347 l 451 347 l 451 -69 l 243 -69 "},"¢":{"ha":764,"x_min":0,"x_max":0,"o":"m 104 694 l 382 694 l 382 764 l 590 764 l 590 694 l 660 694 l 660 486 l 590 486 l 590 278 l 660 278 l 660 69 l 590 69 l 590 0 l 382 0 l 382 69 l 104 69 m 382 278 l 382 486 l 313 486 l 313 278 "},"¤":{"ha":833,"x_min":0,"x_max":0,"o":"m 313 69 l 104 69 l 104 278 l 174 278 l 174 486 l 104 486 l 104 694 l 313 694 l 313 625 l 521 625 l 521 694 l 729 694 l 729 486 l 660 486 l 660 278 l 729 278 l 729 69 l 521 69 l 521 139 l 313 139 m 451 347 l 451 417 l 382 417 l 382 347 "},"$":{"ha":972,"x_min":0,"x_max":0,"o":"m 104 625 l 174 625 l 174 764 l 313 764 l 313 833 l 521 833 l 521 764 l 729 764 l 729 556 l 313 556 l 313 486 l 729 486 l 729 69 l 660 69 l 660 0 l 521 0 l 521 -69 l 313 -69 l 313 0 l 104 0 l 104 208 l 521 208 l 521 278 l 104 278 "},"€":{"ha":833,"x_min":0,"x_max":0,"o":"m 243 69 l 174 69 l 174 278 l 35 278 l 35 486 l 174 486 l 174 625 l 243 625 l 243 764 l 729 764 l 729 556 l 382 556 l 382 486 l 590 486 l 590 278 l 382 278 l 382 208 l 729 208 l 729 0 l 243 0 "},"£":{"ha":764,"x_min":0,"x_max":0,"o":"m 104 486 l 243 486 l 243 625 l 382 625 l 382 764 l 660 764 l 660 556 l 451 556 l 451 486 l 660 486 l 660 278 l 382 278 l 382 208 l 660 208 l 660 0 l 104 0 l 104 208 l 174 208 l 174 278 l 104 278 "},"¥":{"ha":694,"x_min":0,"x_max":0,"o":"m 313 625 l 382 625 l 382 764 l 590 764 l 590 486 l 521 486 l 521 417 l 451 417 l 451 347 l 590 347 l 590 139 l 451 139 l 451 0 l 243 0 l 243 139 l 104 139 l 104 347 l 243 347 l 243 417 l 174 417 l 174 486 l 104 486 l 104 764 l 313 764 "},"∠":{"ha":833,"x_min":0,"x_max":0,"o":"m 729 694 l 729 486 l 590 486 l 590 347 l 451 347 l 451 208 l 729 208 l 729 0 l 104 0 l 104 208 l 243 208 l 243 417 l 382 417 l 382 556 l 521 556 l 521 694 "},"⊕":{"ha":1111,"x_min":0,"x_max":0,"o":"m 382 486 l 451 486 l 451 556 l 660 556 l 660 486 l 729 486 l 729 278 l 660 278 l 660 208 l 451 208 l 451 278 l 382 278 m 104 694 l 243 694 l 243 833 l 868 833 l 868 694 l 1007 694 l 1007 69 l 868 69 l 868 -69 l 243 -69 l 243 69 l 104 69 m 799 139 l 799 625 l 313 625 l 313 139 "},"∈":{"ha":764,"x_min":0,"x_max":0,"o":"m 660 556 l 313 556 l 313 486 l 660 486 l 660 278 l 313 278 l 313 208 l 660 208 l 660 0 l 243 0 l 243 139 l 104 139 l 104 625 l 243 625 l 243 764 l 660 764 "},"≡":{"ha":764,"x_min":0,"x_max":0,"o":"m 660 556 l 104 556 l 104 764 l 660 764 m 104 208 l 660 208 l 660 0 l 104 0 m 104 486 l 660 486 l 660 278 l 104 278 "},"+":{"ha":833,"x_min":0,"x_max":0,"o":"m 104 486 l 313 486 l 313 694 l 521 694 l 521 486 l 729 486 l 729 278 l 521 278 l 521 69 l 313 69 l 313 278 l 104 278 "},"−":{"ha":625,"x_min":0,"x_max":0,"o":"m 104 486 l 521 486 l 521 278 l 104 278 "},"×":{"ha":694,"x_min":0,"x_max":0,"o":"m 313 485 l 382 485 l 382 624 l 590 624 l 590 415 l 451 415 l 451 347 l 590 347 l 590 139 l 382 139 l 382 276 l 313 276 l 313 139 l 104 139 l 104 347 l 243 347 l 243 415 l 104 415 l 104 624 l 313 624 "},"÷":{"ha":625,"x_min":0,"x_max":0,"o":"m 521 625 l 521 417 l 410 417 l 410 278 l 313 278 l 313 139 l 104 139 l 104 347 l 201 347 l 201 486 l 313 486 l 313 625 "},"=":{"ha":625,"x_min":0,"x_max":0,"o":"m 104 69 l 104 278 l 521 278 l 521 69 m 104 556 l 521 556 l 521 347 l 104 347 "},"≠":{"ha":694,"x_min":0,"x_max":0,"o":"m 104 347 l 104 556 l 313 556 l 313 625 l 521 625 l 521 556 l 590 556 l 590 347 l 451 347 l 451 278 l 590 278 l 590 69 l 382 69 l 382 0 l 174 0 l 174 69 l 104 69 l 104 278 l 243 278 l 243 347 "},">":{"ha":694,"x_min":0,"x_max":0,"o":"m 590 208 l 451 208 l 451 69 l 313 69 l 313 0 l 104 0 l 104 208 l 243 208 l 243 278 l 382 278 l 382 347 l 243 347 l 243 417 l 104 417 l 104 625 l 313 625 l 313 556 l 451 556 l 451 417 l 590 417 "},"<":{"ha":694,"x_min":0,"x_max":0,"o":"m 243 417 l 243 556 l 382 556 l 382 625 l 590 625 l 590 417 l 451 417 l 451 347 l 313 347 l 313 278 l 451 278 l 451 208 l 590 208 l 590 0 l 382 0 l 382 69 l 243 69 l 243 208 l 104 208 l 104 417 "},"≥":{"ha":694,"x_min":0,"x_max":0,"o":"m 104 556 l 104 764 l 382 764 l 382 625 l 590 625 l 590 347 l 382 347 l 382 278 l 104 278 l 104 486 l 382 486 l 382 556 m 104 208 l 382 208 l 382 278 l 590 278 l 590 69 l 382 69 l 382 0 l 104 0 "},"≤":{"ha":694,"x_min":0,"x_max":0,"o":"m 313 486 l 590 486 l 590 278 l 313 278 l 313 347 l 104 347 l 104 625 l 313 625 l 313 764 l 590 764 l 590 556 l 313 556 m 104 278 l 313 278 l 313 208 l 590 208 l 590 0 l 313 0 l 313 69 l 104 69 "},"±":{"ha":694,"x_min":0,"x_max":0,"o":"m 104 556 l 243 556 l 243 694 l 451 694 l 451 556 l 590 556 l 590 347 l 451 347 l 451 278 l 590 278 l 590 69 l 104 69 l 104 278 l 243 278 l 243 347 l 104 347 "},"≈":{"ha":833,"x_min":0,"x_max":0,"o":"m 104 278 l 174 278 l 174 347 l 451 347 l 451 278 l 521 278 l 521 347 l 729 347 l 729 139 l 660 139 l 660 69 l 382 69 l 382 139 l 313 139 l 313 69 l 104 69 m 104 625 l 174 625 l 174 694 l 451 694 l 451 625 l 521 625 l 521 694 l 729 694 l 729 486 l 660 486 l 660 417 l 382 417 l 382 486 l 313 486 l 313 417 l 104 417 "},"~":{"ha":833,"x_min":0,"x_max":0,"o":"m 104 417 l 174 417 l 174 486 l 451 486 l 451 417 l 521 417 l 521 486 l 729 486 l 729 278 l 660 278 l 660 208 l 382 208 l 382 278 l 313 278 l 313 208 l 104 208 "},"¬":{"ha":694,"x_min":0,"x_max":0,"o":"m 104 417 l 590 417 l 590 69 l 382 69 l 382 208 l 104 208 "},"^":{"ha":694,"x_min":0,"x_max":0,"o":"m 104 625 l 243 625 l 243 764 l 451 764 l 451 625 l 590 625 l 590 417 l 382 417 l 382 556 l 313 556 l 313 417 l 104 417 "},"∞":{"ha":1250,"x_min":0,"x_max":0,"o":"m 660 69 l 660 208 l 521 208 l 521 69 l 243 69 l 243 208 l 104 208 l 104 556 l 243 556 l 243 694 l 521 694 l 521 556 l 660 556 l 660 694 l 1007 694 l 1007 556 l 1146 556 l 1146 208 l 1007 208 l 1007 69 m 521 278 l 521 486 l 313 486 l 313 278 m 938 278 l 938 486 l 729 486 l 729 278 "},"∧":{"ha":833,"x_min":0,"x_max":0,"o":"m 521 618 l 521 479 l 660 479 l 660 271 l 729 271 l 729 -7 l 521 -7 l 521 201 l 451 201 l 451 340 l 382 340 l 382 201 l 313 201 l 313 -7 l 104 -7 l 104 271 l 174 271 l 174 479 l 313 479 l 313 618 "},"∨":{"ha":833,"x_min":0,"x_max":0,"o":"m 313 132 l 174 132 l 174 340 l 104 340 l 104 618 l 313 618 l 313 410 l 382 410 l 382 271 l 451 271 l 451 410 l 521 410 l 521 618 l 729 618 l 729 340 l 660 340 l 660 132 l 521 132 l 521 -7 l 313 -7 "},"∩":{"ha":833,"x_min":0,"x_max":0,"o":"m 243 556 l 243 625 l 590 625 l 590 556 l 729 556 l 729 0 l 521 0 l 521 417 l 313 417 l 313 0 l 104 0 l 104 556 "},"∪":{"ha":833,"x_min":0,"x_max":0,"o":"m 104 625 l 313 625 l 313 208 l 521 208 l 521 625 l 729 625 l 729 69 l 590 69 l 590 0 l 243 0 l 243 69 l 104 69 "},"∫":{"ha":833,"x_min":0,"x_max":0,"o":"m 729 764 l 729 556 l 521 556 l 521 347 l 451 347 l 451 139 l 382 139 l 382 0 l 104 0 l 104 208 l 243 208 l 243 417 l 313 417 l 313 625 l 382 625 l 382 764 "},"∏":{"ha":903,"x_min":0,"x_max":0,"o":"m 799 556 l 729 556 l 729 0 l 521 0 l 521 556 l 382 556 l 382 0 l 174 0 l 174 556 l 104 556 l 104 764 l 799 764 "},"∑":{"ha":764,"x_min":0,"x_max":0,"o":"m 521 278 l 382 278 l 382 208 l 660 208 l 660 0 l 104 0 l 104 208 l 174 208 l 174 347 l 313 347 l 313 417 l 174 417 l 174 556 l 104 556 l 104 764 l 660 764 l 660 556 l 382 556 l 382 486 l 521 486 "},"√":{"ha":972,"x_min":0,"x_max":0,"o":"m 938 764 l 938 556 l 660 556 l 660 347 l 590 347 l 590 139 l 521 139 l 521 0 l 243 0 l 243 69 l 104 69 l 104 278 l 313 278 l 313 208 l 382 208 l 382 417 l 451 417 l 451 625 l 521 625 l 521 764 "},"µ":{"ha":972,"x_min":0,"x_max":0,"o":"m 382 0 l 382 69 l 313 69 l 313 -69 l 104 -69 l 104 139 l 243 139 l 243 625 l 451 625 l 451 208 l 660 208 l 660 625 l 868 625 l 868 0 "},"∂":{"ha":764,"x_min":0,"x_max":0,"o":"m 521 69 l 521 0 l 104 0 l 104 556 l 451 556 l 451 625 l 382 625 l 382 764 l 160 764 l 160 972 l 451 972 l 451 903 l 590 903 l 590 764 l 660 764 l 660 69 m 451 208 l 451 347 l 313 347 l 313 208 "},"∟":{"ha":625,"x_min":0,"x_max":0,"o":"m 104 403 l 313 403 l 313 208 l 521 208 l 521 0 l 104 0 "},"%":{"ha":1250,"x_min":0,"x_max":0,"o":"m 382 139 l 382 278 l 521 278 l 521 486 l 451 486 l 451 347 l 243 347 l 243 486 l 104 486 l 104 764 l 243 764 l 243 833 l 451 833 l 451 764 l 590 764 l 590 556 l 660 556 l 660 764 l 729 764 l 729 903 l 938 903 l 938 625 l 868 625 l 868 486 l 729 486 l 729 278 l 799 278 l 799 417 l 1007 417 l 1007 278 l 1146 278 l 1146 0 l 1007 0 l 1007 -69 l 799 -69 l 799 0 l 660 0 l 660 208 l 590 208 l 590 0 l 451 0 l 451 -69 l 243 -69 l 243 139 m 382 556 l 382 625 l 313 625 l 313 556 m 938 139 l 938 208 l 868 208 l 868 139 "},"‰":{"ha":1528,"x_min":0,"x_max":0,"o":"m 382 139 l 382 278 l 521 278 l 521 486 l 451 486 l 451 347 l 243 347 l 243 486 l 104 486 l 104 764 l 243 764 l 243 833 l 451 833 l 451 764 l 590 764 l 590 556 l 660 556 l 660 764 l 729 764 l 729 903 l 938 903 l 938 625 l 868 625 l 868 486 l 729 486 l 729 278 l 799 278 l 799 417 l 1007 417 l 1007 278 l 1076 278 l 1076 417 l 1285 417 l 1285 278 l 1424 278 l 1424 0 l 1285 0 l 1285 -69 l 1076 -69 l 1076 0 l 1007 0 l 1007 -69 l 799 -69 l 799 0 l 660 0 l 660 208 l 590 208 l 590 0 l 451 0 l 451 -69 l 243 -69 l 243 139 m 382 556 l 382 625 l 313 625 l 313 556 m 938 139 l 938 208 l 868 208 l 868 139 m 1215 139 l 1215 208 l 1146 208 l 1146 139 "},"⊥":{"ha":694,"x_min":0,"x_max":0,"o":"m 104 208 l 243 208 l 243 625 l 451 625 l 451 208 l 590 208 l 590 0 l 104 0 "},"∝":{"ha":833,"x_min":0,"x_max":0,"o":"m 243 139 l 104 139 l 104 347 l 243 347 l 243 486 l 451 486 l 451 347 l 521 347 l 521 486 l 729 486 l 729 278 l 590 278 l 590 208 l 729 208 l 729 0 l 521 0 l 521 139 l 451 139 l 451 0 l 243 0 m 382 208 l 382 278 l 313 278 l 313 208 "},"∴":{"ha":833,"x_min":0,"x_max":0,"o":"m 104 208 l 313 208 l 313 0 l 104 0 m 313 556 l 521 556 l 521 347 l 313 347 m 521 208 l 729 208 l 729 0 l 521 0 "},"∕":{"ha":625,"x_min":0,"x_max":0,"o":"m 521 694 l 521 486 l 451 486 l 451 278 l 382 278 l 382 139 l 313 139 l 313 0 l 104 0 l 104 208 l 174 208 l 174 417 l 243 417 l 243 556 l 313 556 l 313 694 "},"∣":{"ha":417,"x_min":0,"x_max":0,"o":"m 104 625 l 313 625 l 313 0 l 104 0 "},"∥":{"ha":694,"x_min":0,"x_max":0,"o":"m 104 625 l 313 625 l 313 0 l 104 0 m 382 625 l 590 625 l 590 0 l 382 0 "},"∬":{"ha":1250,"x_min":0,"x_max":0,"o":"m 729 764 l 729 625 l 799 625 l 799 764 l 1146 764 l 1146 556 l 938 556 l 938 347 l 868 347 l 868 139 l 799 139 l 799 0 l 521 0 l 521 208 l 660 208 l 660 417 l 729 417 l 729 556 l 521 556 l 521 347 l 451 347 l 451 139 l 382 139 l 382 0 l 104 0 l 104 208 l 243 208 l 243 417 l 313 417 l 313 625 l 382 625 l 382 764 "},"∮":{"ha":903,"x_min":0,"x_max":0,"o":"m 799 764 l 799 556 l 590 556 l 590 486 l 660 486 l 660 208 l 521 208 l 521 139 l 451 139 l 451 0 l 104 0 l 104 208 l 313 208 l 313 278 l 174 278 l 174 556 l 382 556 l 382 625 l 451 625 l 451 764 m 451 347 l 451 417 l 382 417 l 382 347 "},"∵":{"ha":833,"x_min":0,"x_max":0,"o":"m 313 556 l 313 347 l 104 347 l 104 556 m 313 208 l 521 208 l 521 0 l 313 0 m 521 556 l 729 556 l 729 347 l 521 347 "},"∶":{"ha":417,"x_min":0,"x_max":0,"o":"m 313 556 l 313 347 l 104 347 l 104 556 m 104 208 l 313 208 l 313 0 l 104 0 "},"∷":{"ha":764,"x_min":0,"x_max":0,"o":"m 313 556 l 313 347 l 104 347 l 104 556 m 104 208 l 313 208 l 313 0 l 104 0 m 451 208 l 660 208 l 660 0 l 451 0 m 451 556 l 660 556 l 660 347 l 451 347 "},"∽":{"ha":833,"x_min":0,"x_max":0,"o":"m 104 417 l 243 417 l 243 486 l 451 486 l 451 417 l 521 417 l 521 486 l 729 486 l 729 278 l 590 278 l 590 208 l 382 208 l 382 278 l 313 278 l 313 208 l 104 208 "},"≌":{"ha":833,"x_min":0,"x_max":0,"o":"m 104 556 l 174 556 l 174 625 l 451 625 l 451 556 l 521 556 l 521 625 l 729 625 l 729 417 l 660 417 l 660 347 l 382 347 l 382 417 l 313 417 l 313 347 l 104 347 m 104 278 l 729 278 l 729 69 l 104 69 "},"≒":{"ha":764,"x_min":0,"x_max":0,"o":"m 590 278 l 590 208 l 660 208 l 660 0 l 451 0 l 451 69 l 104 69 l 104 278 m 104 625 l 313 625 l 313 556 l 660 556 l 660 347 l 174 347 l 174 417 l 104 417 "},"≦":{"ha":764,"x_min":0,"x_max":0,"o":"m 660 208 l 660 0 l 104 0 l 104 208 m 104 556 l 243 556 l 243 764 l 660 764 l 660 556 l 313 556 l 313 486 l 660 486 l 660 278 l 174 278 l 174 347 l 104 347 "},"≧":{"ha":764,"x_min":0,"x_max":0,"o":"m 660 0 l 104 0 l 104 208 l 660 208 m 104 486 l 451 486 l 451 556 l 104 556 l 104 764 l 521 764 l 521 556 l 660 556 l 660 347 l 590 347 l 590 278 l 104 278 "},"≪":{"ha":833,"x_min":0,"x_max":0,"o":"m 174 417 l 174 556 l 382 556 l 382 347 l 313 347 l 313 278 l 382 278 l 382 69 l 174 69 l 174 208 l 104 208 l 104 417 m 451 417 l 521 417 l 521 556 l 729 556 l 729 347 l 660 347 l 660 278 l 729 278 l 729 69 l 521 69 l 521 208 l 451 208 "},"≫":{"ha":833,"x_min":0,"x_max":0,"o":"m 729 208 l 660 208 l 660 69 l 451 69 l 451 278 l 521 278 l 521 347 l 451 347 l 451 556 l 660 556 l 660 417 l 729 417 m 104 278 l 174 278 l 174 347 l 104 347 l 104 556 l 313 556 l 313 417 l 382 417 l 382 208 l 313 208 l 313 69 l 104 69 "},"≮":{"ha":833,"x_min":0,"x_max":0,"o":"m 243 417 l 243 556 l 451 556 l 451 625 l 660 625 l 660 556 l 729 556 l 729 347 l 590 347 l 590 278 l 729 278 l 729 69 l 521 69 l 521 0 l 313 0 l 313 69 l 243 69 l 243 208 l 104 208 l 104 417 m 382 278 l 382 347 l 313 347 l 313 278 "},"≯":{"ha":833,"x_min":0,"x_max":0,"o":"m 729 208 l 590 208 l 590 69 l 382 69 l 382 0 l 174 0 l 174 69 l 104 69 l 104 278 l 243 278 l 243 347 l 104 347 l 104 556 l 313 556 l 313 625 l 521 625 l 521 556 l 590 556 l 590 417 l 729 417 m 521 278 l 521 347 l 451 347 l 451 278 "},"⊙":{"ha":1389,"x_min":0,"x_max":0,"o":"m 660 486 l 660 278 l 451 278 l 451 486 m 174 625 l 313 625 l 313 764 l 799 764 l 799 625 l 938 625 l 938 139 l 799 139 l 799 0 l 313 0 l 313 139 l 174 139 m 729 208 l 729 556 l 382 556 l 382 208 "},"⊿":{"ha":903,"x_min":0,"x_max":0,"o":"m 590 625 l 590 694 l 799 694 l 799 0 l 104 0 l 104 208 l 174 208 l 174 347 l 313 347 l 313 486 l 451 486 l 451 625 m 590 208 l 590 417 l 521 417 l 521 278 l 382 278 l 382 208 "},"＋":{"ha":1389,"x_min":0,"x_max":0,"o":"m 104 486 l 299 486 l 299 694 l 507 694 l 507 486 l 715 486 l 715 278 l 507 278 l 507 69 l 299 69 l 299 278 l 104 278 "},"＜":{"ha":833,"x_min":0,"x_max":0,"o":"m 243 486 l 243 625 l 451 625 l 451 694 l 729 694 l 729 486 l 521 486 l 521 417 l 313 417 l 313 347 l 521 347 l 521 278 l 729 278 l 729 69 l 451 69 l 451 139 l 243 139 l 243 278 l 104 278 l 104 486 "},"＝":{"ha":764,"x_min":0,"x_max":0,"o":"m 104 69 l 104 278 l 660 278 l 660 69 m 104 556 l 660 556 l 660 347 l 104 347 "},"＞":{"ha":833,"x_min":0,"x_max":0,"o":"m 729 278 l 590 278 l 590 139 l 382 139 l 382 69 l 104 69 l 104 278 l 313 278 l 313 347 l 521 347 l 521 417 l 313 417 l 313 486 l 104 486 l 104 694 l 382 694 l 382 625 l 590 625 l 590 486 l 729 486 "},"｜":{"ha":417,"x_min":0,"x_max":0,"o":"m 104 986 l 313 986 l 313 -14 l 104 -14 "},"～":{"ha":972,"x_min":0,"x_max":0,"o":"m 104 417 l 243 417 l 243 486 l 521 486 l 521 417 l 660 417 l 660 486 l 868 486 l 868 278 l 729 278 l 729 208 l 451 208 l 451 278 l 313 278 l 313 208 l 104 208 "},"￢":{"ha":764,"x_min":0,"x_max":0,"o":"m 104 417 l 660 417 l 660 69 l 451 69 l 451 208 l 104 208 "},"↑":{"ha":972,"x_min":0,"x_max":0,"o":"m 590 764 l 590 625 l 729 625 l 729 486 l 868 486 l 868 278 l 660 278 l 660 417 l 590 417 l 590 0 l 382 0 l 382 417 l 313 417 l 313 278 l 104 278 l 104 486 l 243 486 l 243 625 l 382 625 l 382 764 "},"↗":{"ha":972,"x_min":0,"x_max":0,"o":"m 868 764 l 868 208 l 660 208 l 660 417 l 590 417 l 590 278 l 451 278 l 451 139 l 313 139 l 313 0 l 104 0 l 104 208 l 243 208 l 243 347 l 382 347 l 382 486 l 521 486 l 521 556 l 313 556 l 313 764 "},"→":{"ha":972,"x_min":0,"x_max":0,"o":"m 868 278 l 729 278 l 729 139 l 590 139 l 590 0 l 382 0 l 382 208 l 521 208 l 521 278 l 104 278 l 104 486 l 521 486 l 521 556 l 382 556 l 382 764 l 590 764 l 590 625 l 729 625 l 729 486 l 868 486 "},"↘":{"ha":972,"x_min":0,"x_max":0,"o":"m 313 208 l 521 208 l 521 278 l 382 278 l 382 417 l 243 417 l 243 556 l 104 556 l 104 764 l 313 764 l 313 625 l 451 625 l 451 486 l 590 486 l 590 347 l 660 347 l 660 556 l 868 556 l 868 0 l 313 0 "},"↓":{"ha":972,"x_min":0,"x_max":0,"o":"m 382 139 l 243 139 l 243 278 l 104 278 l 104 486 l 313 486 l 313 347 l 382 347 l 382 764 l 590 764 l 590 347 l 660 347 l 660 486 l 868 486 l 868 278 l 729 278 l 729 139 l 590 139 l 590 0 l 382 0 "},"↙":{"ha":972,"x_min":0,"x_max":0,"o":"m 104 0 l 104 556 l 313 556 l 313 347 l 382 347 l 382 486 l 521 486 l 521 625 l 660 625 l 660 764 l 868 764 l 868 556 l 729 556 l 729 417 l 590 417 l 590 278 l 451 278 l 451 208 l 660 208 l 660 0 "},"←":{"ha":972,"x_min":0,"x_max":0,"o":"m 243 486 l 243 625 l 382 625 l 382 764 l 590 764 l 590 556 l 451 556 l 451 486 l 868 486 l 868 278 l 451 278 l 451 208 l 590 208 l 590 0 l 382 0 l 382 139 l 243 139 l 243 278 l 104 278 l 104 486 "},"↖":{"ha":972,"x_min":0,"x_max":0,"o":"m 660 556 l 451 556 l 451 486 l 590 486 l 590 347 l 729 347 l 729 208 l 868 208 l 868 0 l 660 0 l 660 139 l 521 139 l 521 278 l 382 278 l 382 417 l 313 417 l 313 208 l 104 208 l 104 764 l 660 764 "},"↔":{"ha":1528,"x_min":0,"x_max":0,"o":"m 243 486 l 243 625 l 382 625 l 382 764 l 590 764 l 590 556 l 451 556 l 451 486 l 1076 486 l 1076 556 l 938 556 l 938 764 l 1146 764 l 1146 625 l 1285 625 l 1285 486 l 1424 486 l 1424 278 l 1285 278 l 1285 139 l 1146 139 l 1146 0 l 938 0 l 938 208 l 1076 208 l 1076 278 l 451 278 l 451 208 l 590 208 l 590 0 l 382 0 l 382 139 l 243 139 l 243 278 l 104 278 l 104 486 "},"↕":{"ha":972,"x_min":0,"x_max":0,"o":"m 590 833 l 729 833 l 729 694 l 868 694 l 868 486 l 660 486 l 660 625 l 590 625 l 590 139 l 660 139 l 660 278 l 868 278 l 868 69 l 729 69 l 729 -69 l 590 -69 l 590 -208 l 382 -208 l 382 -69 l 243 -69 l 243 69 l 104 69 l 104 278 l 313 278 l 313 139 l 382 139 l 382 625 l 313 625 l 313 486 l 104 486 l 104 694 l 243 694 l 243 833 l 382 833 l 382 972 l 590 972 "},"◌":{"ha":1250,"x_min":0,"x_max":0,"o":"m 382 625 l 313 625 l 313 417 l 104 417 l 104 625 l 174 625 l 174 833 l 382 833 l 382 903 l 590 903 l 590 694 l 382 694 m 104 347 l 313 347 l 313 139 l 382 139 l 382 69 l 590 69 l 590 -139 l 382 -139 l 382 -69 l 174 -69 l 174 139 l 104 139 m 660 69 l 868 69 l 868 139 l 938 139 l 938 347 l 1146 347 l 1146 139 l 1076 139 l 1076 -69 l 868 -69 l 868 -139 l 660 -139 m 660 903 l 868 903 l 868 833 l 1076 833 l 1076 625 l 1146 625 l 1146 417 l 938 417 l 938 625 l 868 625 l 868 694 l 660 694 "},"◊":{"ha":972,"x_min":0,"x_max":0,"o":"m 382 -69 l 382 69 l 243 69 l 243 278 l 104 278 l 104 486 l 243 486 l 243 694 l 382 694 l 382 833 l 590 833 l 590 694 l 729 694 l 729 486 l 868 486 l 868 278 l 729 278 l 729 69 l 590 69 l 590 -69 m 451 347 l 451 139 l 521 139 l 521 347 l 660 347 l 660 417 l 521 417 l 521 625 l 451 625 l 451 417 l 313 417 l 313 347 "},"▶":{"ha":764,"x_min":0,"x_max":0,"o":"m 313 139 l 313 0 l 104 0 l 104 764 l 313 764 l 313 625 l 521 625 l 521 486 l 660 486 l 660 278 l 521 278 l 521 139 "},"◀":{"ha":764,"x_min":0,"x_max":0,"o":"m 243 278 l 104 278 l 104 486 l 243 486 l 243 625 l 451 625 l 451 764 l 660 764 l 660 0 l 451 0 l 451 139 l 243 139 "},"ゝ":{"ha":833,"x_min":0,"x_max":0,"o":"m 729 208 l 590 208 l 590 69 l 382 69 l 382 0 l 104 0 l 104 208 l 313 208 l 313 278 l 451 278 l 451 347 l 313 347 l 313 486 l 174 486 l 174 625 l 104 625 l 104 833 l 313 833 l 313 694 l 382 694 l 382 556 l 521 556 l 521 417 l 729 417 "},"ゞ":{"ha":1042,"x_min":0,"x_max":0,"o":"m 729 208 l 590 208 l 590 69 l 382 69 l 382 0 l 104 0 l 104 208 l 313 208 l 313 278 l 451 278 l 451 347 l 313 347 l 313 486 l 174 486 l 174 625 l 104 625 l 104 833 l 313 833 l 313 694 l 382 694 l 382 556 l 521 556 l 521 417 l 729 417 m 451 833 l 660 833 l 660 625 l 451 625 m 729 833 l 938 833 l 938 625 l 729 625 "},"ー":{"ha":1042,"x_min":0,"x_max":0,"o":"m 104 486 l 938 486 l 938 278 l 104 278 "},"ヽ":{"ha":833,"x_min":0,"x_max":0,"o":"m 729 208 l 521 208 l 521 347 l 382 347 l 382 486 l 243 486 l 243 556 l 104 556 l 104 764 l 313 764 l 313 694 l 451 694 l 451 556 l 590 556 l 590 417 l 729 417 "}}}
